<svg xmlns="http://www.w3.org/2000/svg" viewBox="0 0 129.76 104.79"><defs><style>.cls-1{fill:#38383f;}.cls-2{fill:#fff;}</style></defs><title>Recurso 1</title><g id="Capa_2" data-name="Capa 2"><g id="Text"><path class="cls-1" d="M40.66,37.48c-.26.94-1,1.33-3,1.1-.42,0-.85-.09-1.28-.1a6.26,6.26,0,0,0-4.92,2.34,5.53,5.53,0,0,0-.8,1.34c-.12.29-.22.58-.32.87q-.51,1.59-.87,3.21a61.39,61.39,0,0,0-1.16,6.86,54.26,54.26,0,0,0-.38,5.55v.23A9.85,9.85,0,0,0,28,60a6.67,6.67,0,0,0,1.32,2.92,12.14,12.14,0,0,0,.93,1c1.53,1.5,2.9,2.87,4.32,4.33.49.5.59,1.83.37,3.35.49-.56,3.1-1.58,3.59-2.14l2.31-2.67.53-.61c-.56-.29-1.1-.63-1.63-1-.69-.44-2.08-3.1-2.75-3.56-.17.75-1.16.83-1.72.4s-1.17-.91-1.75-1.38a3.22,3.22,0,0,1-.94-1,2,2,0,0,1-.23-.89v.06c0-.75,0-1.51,0-2.25,0-1.07.13-2.13.25-3.18a51.87,51.87,0,0,1,1.1-6.32c.15-.57.3-1.15.48-1.71s.31-.88.46-1.32l0,0a1.66,1.66,0,0,1,.79-.8,1.46,1.46,0,0,1,.65-.13c.13,0,3.49,0,3.58,1.65.07-.56,1-2,1-2.6.1-.9.2-1.8.31-2.7C41.06,39.28,40.63,37.69,40.66,37.48Z"/><path class="cls-2" d="M36.17,68.16c.89-3.47,2.91-12.87,5.35-33.78l21.89,2.55a319.5,319.5,0,0,0-2.25,34.28,30.56,30.56,0,0,1-.2,3.45l-.07.59c-.12,1.06-.89,1.61-1.9,2.09-1.76.84-6.28,1.3-11.46.69-5.83-.68-10-2-11.44-3.76a2.88,2.88,0,0,1-.68-2h0A32.27,32.27,0,0,1,36.17,68.16Z"/><path class="cls-1" d="M47.46,78.59c4.84.57,9.68.26,11.78-.74a3.3,3.3,0,0,0,2.21-2.53l.07-.59a34.28,34.28,0,0,0,.21-3.52A316.88,316.88,0,0,1,64,37a.56.56,0,0,0-.5-.62L41.58,33.82a.55.55,0,0,0-.62.49C38.57,54.85,36.59,64.25,35.62,68a32.41,32.41,0,0,0-.77,4.19,3.42,3.42,0,0,0,.81,2.42C37.56,77,43.13,78.09,47.46,78.59ZM62.78,37.42A319.11,319.11,0,0,0,60.6,71.2a32,32,0,0,1-.2,3.4l-.07.59c-.08.68-.51,1.13-1.58,1.64-1.62.78-6,1.24-11.16.64-5.75-.67-9.78-2-11.05-3.55l0,0A2.36,2.36,0,0,1,36,72.35a31.66,31.66,0,0,1,.75-4c1-3.76,2.92-13.09,5.3-33.29Z"/><path class="cls-2" d="M41.52,34.38c.16-1.35,5.18-1.88,11.23-1.17s10.82,2.37,10.66,3.72-5.19,1.88-11.23,1.17S41.36,35.73,41.52,34.38Z"/><path class="cls-1" d="M52.11,38.66a38.17,38.17,0,0,0,8,.19C62.58,38.59,63.85,38,64,37s-1-1.86-3.38-2.7a38.06,38.06,0,0,0-7.78-1.64,37.39,37.39,0,0,0-7.94-.19c-2.52.26-3.8.87-3.91,1.85s1,1.87,3.38,2.71A38.1,38.1,0,0,0,52.11,38.66Zm.57-4.89a36.94,36.94,0,0,1,7.48,1.57c2.25.78,2.69,1.4,2.69,1.52s-.6.63-3,.87a37.29,37.29,0,0,1-7.64-.19A37,37,0,0,1,44.77,36c-2.26-.78-2.69-1.4-2.69-1.53s.6-.62,3-.86A37.27,37.27,0,0,1,52.68,33.77Z"/><path class="cls-1" d="M51.54,43.52c4.15.48,6.3.39,8.05-.05l.08-.68c.3-.09,1,.37,1.27.26A235.64,235.64,0,0,0,59.5,67.93c0,.54,0,1.09,0,1.63a2.47,2.47,0,0,1-1.52,1.34,21.52,21.52,0,0,1-9.65.84c-4.89-.57-8.36-2-9.57-3.4a2.5,2.5,0,0,1-.58-1.2c.11-.59.24-1.18.39-1.76.7-2.61,2.22-9.48,4-24.45C44.21,42,46.27,42.9,51.54,43.52Z"/><path class="cls-2" d="M42,40.08c-1.63-.22-3.27-.41-4.91-.58a6.62,6.62,0,0,0-1.54,0,5.85,5.85,0,0,0-2.51,1,3.45,3.45,0,0,0-1.52,2.26,4.66,4.66,0,0,1,3.8-2.57,5.13,5.13,0,0,1,1,0c.22,0,.45.08.67.12l2.64.51,2.24.4Z"/><polygon class="cls-2" points="38.16 65.63 32.33 60.97 37.39 66.45 38.16 65.63"/><path class="cls-2" d="M41.62,38.32a2.32,2.32,0,0,1-2.75,1.48c-1.93-.22,3.2.83,3.2.83l.06-2.42Z"/><path class="cls-2" d="M34.11,43a9.16,9.16,0,0,0-1.37,2.56,22,22,0,0,0-.91,3.17A33.57,33.57,0,0,0,31,55.39a12.63,12.63,0,0,0,.26,3.19,20,20,0,0,1,.09-2.79c.1-1.09.23-2.17.38-3.26A55,55,0,0,1,33,46,13.2,13.2,0,0,1,34.11,43Z"/><path class="cls-2" d="M37.92,62.93a1.26,1.26,0,0,1-2.23.75c-1.11-1,1.82,1.89,1.82,1.89l.59-1,.2-1.72Z"/><path class="cls-2" d="M36.17,65.11a2.9,2.9,0,0,1,.73,2.61c-.27,1.11.94-2.22.94-2.22Z"/><path class="cls-1" d="M37.62,69.34c.38.73,2.69,2.47,5.18,3-1.47.36-3.38.46-4.23,1.89A3.88,3.88,0,0,1,37.12,73C36.82,72.31,37.62,69.34,37.62,69.34Z"/><path class="cls-1" d="M59.3,71.87c-.54.62-3.27,1.65-5.67,1.54,1.35.68,3.12,1.39,3.62,3a3.86,3.86,0,0,0,1.69-.88C59.39,74.94,59.3,71.87,59.3,71.87Z"/><path class="cls-2" d="M57.52,45.26l-.27,2.23c-.25,2.14-.47,4.29-.67,6.43s-.4,4.42-.55,6.63-.3,4.23-.42,6.35c-.11,1.75-.2,3.5-.28,5.26v.15l1.68,0h.46a1.07,1.07,0,0,0,.25,0s0-.09,0-.14l0-.66.12-3.7c.05-1.38.11-2.76.17-4.14s.15-3,.24-4.51.18-3,.29-4.57.22-3,.35-4.47.25-2.81.4-4.22c0-.41,0-.56.1-1A9.73,9.73,0,0,1,57.52,45.26Z"/><path class="cls-2" d="M43.73,40.82c-.12,1.3-.24,2.59-.38,3.88-.17,1.72-.35,3.43-.55,5.14s-.44,3.67-.71,5.5-.52,3.56-.81,5.34c-.26,1.54-.54,3.08-.84,4.61l0,.12q.57-2,1.08-4c.43-1.72.82-3.46,1.18-5.2s.72-3.62,1-5.44.62-3.53.9-5.3c.23-1.43.44-2.87.65-4.31l0-.13Z"/><path class="cls-2" d="M55.43,48.88c0,.21,0,.42-.08.64l-.22,1.72-.33,2.54-.39,3.12c-.15,1.13-.29,2.26-.44,3.39l-.44,3.44c-.14,1.07-.27,2.14-.41,3.21-.11.9-.23,1.8-.35,2.7-.08.65-.16,1.3-.25,2,0,.2-.05.4-.07.6a1.17,1.17,0,0,0,0,.32v0l1.21.12c0-.22,0-.43,0-.64l.13-1.73c.07-.86.13-1.71.2-2.56l.24-3.13c.08-1.14.17-2.27.26-3.41s.17-2.31.26-3.46L55,54.52l.21-2.72.15-2,.07-.92Z"/><path class="cls-1" d="M43.25,73.83c-.06.51,2,1.17,4.72,1.48s4.87.15,4.93-.35-2-1.17-4.72-1.48S43.31,73.33,43.25,73.83Z"/><path class="cls-2" d="M41,43.61c.13-1.14-.06-2.58-1.32-2.88s2.2-.29,2.2-.29l-.15,2.16Z"/><polygon class="cls-1" points="56.61 47.18 59.79 46.87 59.8 48.62 56.41 48.94 56.61 47.18"/><path class="cls-2" d="M48.86,45a.44.44,0,0,0,.88.1.44.44,0,1,0-.88-.1Z"/><path class="cls-2" d="M47.47,51.79a.44.44,0,0,0,.87.1.44.44,0,1,0-.87-.1Z"/><path class="cls-2" d="M49.46,49.23a.43.43,0,0,0,.39.49.42.42,0,0,0,.48-.38.44.44,0,1,0-.87-.11Z"/><path class="cls-2" d="M47.2,46.93a.44.44,0,1,0,.87.1.42.42,0,0,0-.38-.48A.43.43,0,0,0,47.2,46.93Z"/><path class="cls-2" d="M50.87,43.61a1.31,1.31,0,1,0,1.45-1.15A1.31,1.31,0,0,0,50.87,43.61Z"/><path class="cls-2" d="M47.24,42.82a.65.65,0,0,0,.58.72.65.65,0,1,0,.15-1.3A.67.67,0,0,0,47.24,42.82Z"/><path class="cls-1" d="M54.17,43.85l0-.09,0-.12a1,1,0,0,0-.07-.15,1.68,1.68,0,0,0-.19-.34L53.71,43l-.15-.16-.18-.12-.18-.1a1.28,1.28,0,0,0-.33-.11h-.14a.17.17,0,0,0-.1,0h-.09l.08,0,.09,0,.12.06a1.19,1.19,0,0,1,.25.18l.11.12.1.15a1.09,1.09,0,0,1,.08.15.88.88,0,0,1,.05.15,1.77,1.77,0,0,1,.06.28.33.33,0,0,1,0,.1.27.27,0,0,1,0,.09v.09Z"/><path class="cls-2" d="M46.85,30.74a2.09,2.09,0,0,1,1.67-1.65,2.26,2.26,0,0,1,2.23.72,3.31,3.31,0,0,1,4.75-1.44c2.39-1.75,6.35-.58,6.94,2.35a2.49,2.49,0,0,1,2.76-.08,2.33,2.33,0,0,1,1,3.12,3,3,0,0,1,1.61,2.76,2.8,2.8,0,0,1-2.34,2.58,3.29,3.29,0,0,1-2.79,4.35,3.32,3.32,0,0,1-3.6-3.51,3,3,0,0,1-2.74,0,3.77,3.77,0,0,1-1.52-1.57c-.85-.05-1.74-.13-2.66-.24-6-.7-10.22-2-10.66-3.72A3.43,3.43,0,0,1,46.85,30.74Z"/><path class="cls-1" d="M61.9,44a3.1,3.1,0,0,0,.86,0,3.82,3.82,0,0,0,2.86-1.73,4,4,0,0,0,.55-2.76,3.43,3.43,0,0,0,2.22-2.94,3.37,3.37,0,0,0-1.48-3,2.88,2.88,0,0,0-1.44-3.39,3.15,3.15,0,0,0-2.69-.25,4.86,4.86,0,0,0-4-2.88,5.11,5.11,0,0,0-3.3.7,4,4,0,0,0-1.31-.39A3.82,3.82,0,0,0,50.64,29a3,3,0,0,0-1.28-.47,2.92,2.92,0,0,0-2.84,1.45,4.24,4.24,0,0,0-1.24-.34,4,4,0,0,0-3.52,1.35A3.92,3.92,0,0,0,41,34.53c.64,2.42,6.41,3.58,11.14,4.13.8.1,1.6.17,2.39.22a4.23,4.23,0,0,0,1.59,1.52,3.58,3.58,0,0,0,1.27.39,3.89,3.89,0,0,0,1.24,0A3.83,3.83,0,0,0,61.9,44ZM64,30.84a2.68,2.68,0,0,1,.89.3,1.76,1.76,0,0,1,.78,2.36l-.24.46.45.28a2.51,2.51,0,0,1,1.35,2.21,2.24,2.24,0,0,1-1.84,2.08l-.71.07.23.68a2.8,2.8,0,0,1-.29,2.39,2.68,2.68,0,0,1-2,1.22,3,3,0,0,1-.6,0A2.82,2.82,0,0,1,59.67,40l0-1.11-.92.63a2.06,2.06,0,0,1-1.29.18,2.19,2.19,0,0,1-.85-.24,3.17,3.17,0,0,1-1.29-1.33l-.14-.3-.33,0c-.86-.05-1.75-.13-2.64-.23-7.09-.83-9.91-2.3-10.17-3.3a2.76,2.76,0,0,1,.55-2.56,2.89,2.89,0,0,1,2.53-1,3.45,3.45,0,0,1,1.4.51l.74.46.12-.87a1.53,1.53,0,0,1,1.24-1.17,1.4,1.4,0,0,1,.58,0,1.63,1.63,0,0,1,1.08.56l.52.65.41-.73A2.84,2.84,0,0,1,54,28.45a3.43,3.43,0,0,1,1.2.41l.32.19.29-.22a3.9,3.9,0,0,1,2.8-.68,3.63,3.63,0,0,1,3.26,2.68l.17.85.71-.5A1.79,1.79,0,0,1,64,30.84Z"/><path class="cls-1" d="M62,30.32a3.84,3.84,0,0,0-.28.53,2.67,2.67,0,0,0-.16.69,3.06,3.06,0,0,0,.09,1.2,2.85,2.85,0,0,1,.4-.93,1.92,1.92,0,0,1,.36-.44,3.22,3.22,0,0,1,.39-.25Z"/><path class="cls-1" d="M66,38.84l-.07-.08-.07-.09-.13-.14a1.14,1.14,0,0,0-.16-.15l-.17-.14A2.8,2.8,0,0,0,65,38a3.84,3.84,0,0,0-.4-.21,3,3,0,0,0-.37-.14,2.5,2.5,0,0,0-.36-.11,3.38,3.38,0,0,1,.27.26c.07.08.16.17.24.28l.24.33c.07.12.14.24.19.35a1.66,1.66,0,0,1,.06.16l0,.14.07.32Z"/><path class="cls-1" d="M59.29,34.9a1.63,1.63,0,0,0,.55-.79,1.28,1.28,0,0,0-.14-.94,1.75,1.75,0,0,0-1.61-.79,1.42,1.42,0,0,0-.94.41l.74.28a1.91,1.91,0,0,0-1.63-1.7,2.11,2.11,0,0,0-2.19.87,1.47,1.47,0,0,0,0,1.38,1.43,1.43,0,0,1,1.68-1.4,1.52,1.52,0,0,1,1.09.53,2.07,2.07,0,0,1,.28.67c.06.19.12.39.17.58a3.35,3.35,0,0,1,.6-.59,1.78,1.78,0,0,1,.43-.23,1.05,1.05,0,0,1,.5,0,1,1,0,0,1,.75.57,1.28,1.28,0,0,1-.23,1.16C59.42,34.79,59.38,34.75,59.29,34.9Z"/><path class="cls-1" d="M55.05,28.72l1.48,1.17.22.17c-.24-.59-.47-1.19-.7-1.78L56,28Z"/><path class="cls-2" d="M46.28,35.37a1.74,1.74,0,0,0,0,2.61,1.94,1.94,0,0,0,2.83-.31,1.71,1.71,0,0,0,.23-1.62C48.58,34.06,47.16,34.65,46.28,35.37Z"/><path class="cls-1" d="M46.28,35.37a1.57,1.57,0,0,0-1,1.44,2.12,2.12,0,0,0,.88,1.78,2.27,2.27,0,0,0,3.15-.5,1.68,1.68,0,0,0,0-2A2,2,0,0,1,49,37.17a1.7,1.7,0,0,1-1.11.71,1.63,1.63,0,0,1-1.85-1.21A1.9,1.9,0,0,1,46.28,35.37Z"/><path class="cls-1" d="M64.15,39.39a2.81,2.81,0,0,1-.72,1.13,1.46,1.46,0,0,1-1.16.47h0a2,2,0,0,1-1-.47,3.31,3.31,0,0,1-.73-1.24,2,2,0,0,0,1.16,2.59,1.93,1.93,0,0,0,1,.1A2,2,0,0,0,64,41.06,1.78,1.78,0,0,0,64.15,39.39Z"/><path class="cls-1" d="M65.12,38.84a3,3,0,0,0,1.37-1.58,1.92,1.92,0,0,0,.06-.89,3,3,0,0,0-.35-1A2.19,2.19,0,0,1,66,37a2.08,2.08,0,0,1-1.37.85C64.81,38.16,65,38.5,65.12,38.84Z"/><path class="cls-1" d="M59.23,38.2a3.43,3.43,0,0,1-1.06,0,2.77,2.77,0,0,1-1.11-.38,3.38,3.38,0,0,1-.84-.72c-.22-.28-.4-.57-.61-.85a2.38,2.38,0,0,0,.66,1.81,2.27,2.27,0,0,0,2,.63A1.74,1.74,0,0,0,59.23,38.2Z"/><path class="cls-1" d="M43.39,35.5a4.37,4.37,0,0,1-.36-.93,4,4,0,0,1-.11-1,2.65,2.65,0,0,1,.21-1,2.39,2.39,0,0,1,.61-.83,2.64,2.64,0,0,0-.81.64,3,3,0,0,0-.56,1.1,4.21,4.21,0,0,0-.18,1.32,5.57,5.57,0,0,0,.12,1.07Z"/><path class="cls-1" d="M87.3,31.89c.33.92,1.11,1.24,3.06.84a11.21,11.21,0,0,1,1.27-.21,6.3,6.3,0,0,1,5.11,1.91,5.7,5.7,0,0,1,.91,1.26,9.28,9.28,0,0,1,.39.85c.43,1,.81,2.06,1.15,3.11a65.34,65.34,0,0,1,1.74,6.74c.37,1.82.68,3.65.87,5.5v.18s0,.06,0,0a9.73,9.73,0,0,1,0,1.08,6.51,6.51,0,0,1-.36,1.63,6.79,6.79,0,0,1-.7,1.4,10.73,10.73,0,0,1-.84,1.05C98.52,58.89,97.27,60.38,96,62c-.44.53-.43,1.87-.08,3.37-.53-.52-3.23-1.31-3.76-1.83L89.6,61.05,89,60.48c.53-.34,1-.72,1.55-1.11s1.8-3.26,2.42-3.78c.24.73,1.23.72,1.76.25s1.09-1,1.62-1.53a3.2,3.2,0,0,0,.86-1,2.2,2.2,0,0,0,.15-.92v.07c0-.75-.12-1.5-.21-2.25-.13-1.05-.31-2.1-.53-3.14A51,51,0,0,0,95,40.83c-.19-.56-.39-1.12-.62-1.66s-.39-.85-.57-1.27v0a1.64,1.64,0,0,0-.85-.73,1.48,1.48,0,0,0-.66-.07c-.13,0-3.47.32-3.42,2-.12-.55-1.14-1.94-1.26-2.5l-.54-2.66C87,33.72,87.34,32.1,87.3,31.89Z"/><path class="cls-2" d="M94.41,62.08c-1.18-3.39-4-12.58-8.24-33.2L64.58,33.31a321.2,321.2,0,0,1,5.2,34,30.47,30.47,0,0,0,.5,3.43l.12.58c.21,1,1,1.53,2.07,1.92,1.83.69,6.37.74,11.48-.3,5.75-1.18,9.79-2.83,11.06-4.74a2.92,2.92,0,0,0,.52-2h0A31.11,31.11,0,0,0,94.41,62.08Z"/><path class="cls-1" d="M84.06,73.44c-4.77,1-9.62,1.09-11.79.28a3.32,3.32,0,0,1-2.43-2.34l-.11-.58a30.89,30.89,0,0,1-.52-3.49A318.27,318.27,0,0,0,64,33.42a.56.56,0,0,1,.44-.67l21.58-4.43a.57.57,0,0,1,.67.44C90.88,49,93.66,58.21,94.94,61.89A30.52,30.52,0,0,1,96.08,66a3.48,3.48,0,0,1-.6,2.49C93.79,71,88.34,72.56,84.06,73.44ZM65.25,33.75a319.25,319.25,0,0,1,5.09,33.46,31.81,31.81,0,0,0,.49,3.37l.12.57c.14.68.61,1.09,1.72,1.51,1.68.63,6,.72,11.17-.33,5.67-1.16,9.57-2.8,10.71-4.49v0A2.34,2.34,0,0,0,95,66.23a31.16,31.16,0,0,0-1.09-4c-1.29-3.67-4-12.79-8.15-32.72Z"/><path class="cls-2" d="M86.17,28.88c-.28-1.34-5.33-1.42-11.29-.2S64.31,32,64.58,33.31s5.33,1.42,11.29.2S86.44,30.21,86.17,28.88Z"/><path class="cls-1" d="M76,34.06a37.81,37.81,0,0,1-7.9.87c-2.53,0-3.85-.54-4-1.51s.82-2,3.13-3a37.33,37.33,0,0,1,7.61-2.31,38.58,38.58,0,0,1,7.9-.88c2.53.05,3.85.54,4,1.51s-.82,1.95-3.13,3A38,38,0,0,1,76,34.06Zm-1-4.83a37.13,37.13,0,0,0-7.31,2.21c-2.18,1-2.56,1.63-2.55,1.75s.65.58,3,.61a37,37,0,0,0,7.6-.85,37.13,37.13,0,0,0,7.31-2.21c2.18-1,2.56-1.63,2.54-1.75s-.64-.57-3-.61A37,37,0,0,0,75,29.23Z"/><path class="cls-1" d="M77,38.85c-4.09.84-6.24.93-8,.65l-.14-.68c-.31-.06-.94.46-1.24.38a232.39,232.39,0,0,1,3.58,24.65c0,.55.11,1.09.19,1.62A2.44,2.44,0,0,0,73,66.68a21.62,21.62,0,0,0,9.69,0c4.82-1,8.15-2.69,9.24-4.21a2.49,2.49,0,0,0,.47-1.24c-.16-.58-.34-1.16-.54-1.72-.92-2.55-3-9.26-6.13-24C84.14,36.7,82.17,37.78,77,38.85Z"/><path class="cls-2" d="M86.16,34.6c1.61-.36,3.23-.69,4.85-1a6,6,0,0,1,1.53-.15,5.86,5.86,0,0,1,2.58.77,3.43,3.43,0,0,1,1.71,2.13,4.64,4.64,0,0,0-4-2.23,5,5,0,0,0-.95.06c-.23,0-.44.12-.66.19l-2.59.73-2.2.59Z"/><polygon class="cls-2" points="92.21 59.72 97.61 54.58 93.05 60.48 92.21 59.72"/><path class="cls-2" d="M86.41,32.82a2.34,2.34,0,0,0,2.87,1.23c1.9-.39-3.12,1.11-3.12,1.11l-.27-2.41Z"/><path class="cls-2" d="M94.3,36.87a8.92,8.92,0,0,1,1.58,2.43,22.91,22.91,0,0,1,1.19,3.07,34,34,0,0,1,1.37,6.54,12.69,12.69,0,0,1,0,3.2,20.08,20.08,0,0,0-.33-2.78q-.3-1.61-.66-3.21a56.14,56.14,0,0,0-1.8-6.36A13.2,13.2,0,0,0,94.3,36.87Z"/><path class="cls-2" d="M92.22,57a1.26,1.26,0,0,0,2.29.55c1-1.07-1.66,2-1.66,2l-.67-.94L91.84,57Z"/><path class="cls-2" d="M94.15,59a2.89,2.89,0,0,0-.5,2.66c.36,1.09-1.13-2.12-1.13-2.12Z"/><path class="cls-1" d="M93.07,63.37c-.31.76-2.47,2.7-4.9,3.42,1.49.23,3.41.16,4.37,1.52a3.85,3.85,0,0,0,1.34-1.37C94.12,66.26,93.07,63.37,93.07,63.37Z"/><path class="cls-1" d="M71.69,67.76c.59.57,3.4,1.36,5.78,1-1.29.8-3,1.65-3.34,3.28a3.94,3.94,0,0,1-1.77-.73C71.86,70.83,71.69,67.76,71.69,67.76Z"/><path class="cls-2" d="M71.16,41.1c.18.82.3,1.38.47,2.2q.65,3.16,1.22,6.35c.4,2.18.78,4.36,1.12,6.55s.66,4.19,1,6.29c.25,1.74.49,3.48.73,5.21l0,.16L74,68.05l-.47,0a.69.69,0,0,1-.25,0s0-.09,0-.14l-.08-.65c-.14-1.23-.28-2.45-.43-3.68s-.35-2.74-.53-4.11-.41-3-.62-4.47-.45-3-.69-4.52-.48-3-.73-4.43-.5-2.78-.76-4.17l-.19-1A9.33,9.33,0,0,0,71.16,41.1Z"/><path class="cls-2" d="M84.52,35.49c.23,1.28.47,2.55.71,3.83.32,1.69.65,3.39,1,5.08S87,48,87.4,49.81s.83,3.5,1.28,5.25c.38,1.51.8,3,1.23,4.52l0,.12c-.49-1.3-1-2.6-1.42-3.91-.58-1.68-1.12-3.38-1.62-5.08s-1-3.55-1.52-5.34-.92-3.46-1.36-5.19c-.35-1.41-.68-2.83-1-4.24l0-.13Z"/><path class="cls-2" d="M73.56,44.52l.13.63.37,1.7c.18.83.37,1.67.55,2.51l.66,3.07c.24,1.11.49,2.22.73,3.34s.49,2.26.73,3.39l.69,3.15c.19.89.39,1.78.58,2.67l.42,1.92.12.59a1.23,1.23,0,0,1,.07.32s0,0,0,0l-1.19.22c0-.22-.07-.43-.11-.64-.09-.57-.18-1.14-.28-1.71-.14-.84-.28-1.69-.41-2.53l-.51-3.1-.56-3.37c-.19-1.14-.37-2.29-.56-3.43l-.52-3.18L74,47.42c-.1-.65-.21-1.29-.31-1.94-.06-.31-.11-.61-.16-.92Z"/><path class="cls-1" d="M87.85,68.33c.1.5-1.95,1.34-4.57,1.88s-4.85.57-5,.08,2-1.34,4.58-1.88S87.75,67.84,87.85,68.33Z"/><path class="cls-2" d="M87.5,38c-.23-1.12-.17-2.57,1.07-3s-2.22-.11-2.22-.11l.34,2.14Z"/><polygon class="cls-1" points="72.24 42.93 69.05 42.9 69.19 44.64 72.59 44.67 72.24 42.93"/><path class="cls-2" d="M79.77,40.12a.44.44,0,1,1-.86.18.44.44,0,0,1,.86-.18Z"/><path class="cls-2" d="M81.74,46.73a.44.44,0,1,1-.52-.34A.44.44,0,0,1,81.74,46.73Z"/><path class="cls-2" d="M79.54,44.36a.44.44,0,0,1-.34.52.44.44,0,1,1,.34-.52Z"/><path class="cls-2" d="M81.59,41.87a.44.44,0,1,1-.86.18.44.44,0,0,1,.34-.52A.44.44,0,0,1,81.59,41.87Z"/><path class="cls-2" d="M77.65,38.88a1.31,1.31,0,1,1-1.55-1A1.32,1.32,0,0,1,77.65,38.88Z"/><path class="cls-2" d="M81.19,37.78a.65.65,0,1,1-1.28.26.66.66,0,0,1,.51-.77A.65.65,0,0,1,81.19,37.78Z"/><path class="cls-1" d="M74.38,39.4l0-.09,0-.12a1.42,1.42,0,0,1,0-.16,1.53,1.53,0,0,1,.16-.35l.12-.18.15-.16a1.07,1.07,0,0,1,.16-.14,1,1,0,0,1,.17-.12,1.25,1.25,0,0,1,.33-.13l.13,0h.19l-.08,0-.09,0-.11.07a1.07,1.07,0,0,0-.23.2.71.71,0,0,0-.1.14.75.75,0,0,0-.09.15.94.94,0,0,0-.06.15,1.42,1.42,0,0,0,0,.16,1.58,1.58,0,0,0,0,.28.34.34,0,0,0,0,.11v.17Z"/><path class="cls-2" d="M80.55,25.71a2.12,2.12,0,0,0-1.81-1.5,2.26,2.26,0,0,0-2.16.92,3.3,3.3,0,0,0-4.86-1c-2.53-1.54-6.37,0-6.71,2.94a2.49,2.49,0,0,0-2.76.16,2.33,2.33,0,0,0-.74,3.19,3,3,0,0,0-1.37,2.89,2.8,2.8,0,0,0,2.56,2.37,3.28,3.28,0,0,0,3.15,4.09,3.31,3.31,0,0,0,3.28-3.8,3.09,3.09,0,0,0,2.73-.27A3.68,3.68,0,0,0,73.23,34c.85-.12,1.74-.28,2.64-.46,6-1.23,10-2.92,10.3-4.63A3.43,3.43,0,0,0,80.55,25.71Z"/><path class="cls-1" d="M66.7,40.23a3.53,3.53,0,0,1-.86.08,3.85,3.85,0,0,1-3-1.48,4,4,0,0,1-.79-2.7,3.45,3.45,0,0,1-2.46-2.74,3.34,3.34,0,0,1,1.21-3.15,2.89,2.89,0,0,1,1.14-3.51,3.12,3.12,0,0,1,2.66-.48A4.84,4.84,0,0,1,68.36,23a5.06,5.06,0,0,1,3.34.4,4.31,4.31,0,0,1,1.28-.5,3.81,3.81,0,0,1,3.63,1.32,3,3,0,0,1,1.24-.58,2.65,2.65,0,0,1,1,0,2.88,2.88,0,0,1,2,1.22A4.88,4.88,0,0,1,82,24.43a4,4,0,0,1,3.62,1A3.86,3.86,0,0,1,86.72,29C86.3,31.44,80.65,33.1,76,34.06c-.79.16-1.58.3-2.35.42a4.31,4.31,0,0,1-1.46,1.66,3.52,3.52,0,0,1-1.23.49,4.12,4.12,0,0,1-1.24.06A3.83,3.83,0,0,1,66.7,40.23ZM63.42,27.3a2.55,2.55,0,0,0-.86.37A1.76,1.76,0,0,0,62,30.09l.28.44-.42.31a2.49,2.49,0,0,0-1.15,2.32,2.24,2.24,0,0,0,2,1.92h.72l-.17.69a2.8,2.8,0,0,0,.49,2.36,2.71,2.71,0,0,0,2.13,1,3,3,0,0,0,.6,0A2.83,2.83,0,0,0,68.57,36l-.12-1.1,1,.55a2.08,2.08,0,0,0,1.3.07,2.36,2.36,0,0,0,.83-.32,3.17,3.17,0,0,0,1.17-1.43l.12-.31.32-.05c.85-.12,1.73-.28,2.61-.46,7-1.43,9.68-3.14,9.85-4.17a2.74,2.74,0,0,0-.77-2.5,2.87,2.87,0,0,0-2.6-.74,3.45,3.45,0,0,0-1.35.62l-.7.52L80,25.83a1.55,1.55,0,0,0-1.34-1.06,1.73,1.73,0,0,0-1.61.67l-.46.69-.48-.68a2.83,2.83,0,0,0-2.91-1.4,3.21,3.21,0,0,0-1.16.52l-.3.2-.31-.19a3.94,3.94,0,0,0-2.84-.44,3.64,3.64,0,0,0-3,3l-.1.86-.75-.43A1.76,1.76,0,0,0,63.42,27.3Z"/><path class="cls-1" d="M65.38,26.61a4.26,4.26,0,0,1,.32.5,3.09,3.09,0,0,1,.22.67,3.23,3.23,0,0,1,0,1.2,3,3,0,0,0-.49-.89,1.69,1.69,0,0,0-.4-.4,2,2,0,0,0-.41-.22C64.89,27.18,65.13,26.89,65.38,26.61Z"/><path class="cls-1" d="M62.17,35.43l.06-.08.07-.1.12-.15a1.07,1.07,0,0,1,.14-.16,1.21,1.21,0,0,1,.16-.16,2.69,2.69,0,0,1,.37-.3l.39-.24.35-.18a3.27,3.27,0,0,1,.35-.13,2.22,2.22,0,0,0-.24.27c-.07.09-.15.19-.22.3s-.15.24-.21.36a3.64,3.64,0,0,0-.16.36,1.54,1.54,0,0,0-.05.17.89.89,0,0,0,0,.14l-.05.33Z"/><path class="cls-1" d="M68.51,30.93a1.65,1.65,0,0,1-.62-.74,1.25,1.25,0,0,1,.06-1,1.75,1.75,0,0,1,1.54-.92,1.38,1.38,0,0,1,1,.32l-.7.34a1.91,1.91,0,0,1,1.47-1.83,2.12,2.12,0,0,1,2.26.68,1.49,1.49,0,0,1,.17,1.37A1.44,1.44,0,0,0,71.86,28a1.55,1.55,0,0,0-1,.62,2.06,2.06,0,0,0-.22.69l-.12.6a2.79,2.79,0,0,0-.65-.54,1.89,1.89,0,0,0-.44-.19,1.05,1.05,0,0,0-.5,0,1,1,0,0,0-.7.64,1.25,1.25,0,0,0,.33,1.13C68.37,30.83,68.4,30.79,68.51,30.93Z"/><path class="cls-1" d="M72.2,24.4l-1.38,1.3-.2.19c.19-.61.37-1.22.55-1.83l.08-.26Z"/><path class="cls-2" d="M81.51,30.28a1.72,1.72,0,0,1,.22,2.59,2,2,0,0,1-2.86-.06,1.74,1.74,0,0,1-.36-1.59C79.1,29.17,80.57,29.64,81.51,30.28Z"/><path class="cls-1" d="M81.51,30.28a1.59,1.59,0,0,1,1.1,1.34,2.13,2.13,0,0,1-.73,1.86,2.28,2.28,0,0,1-3.18-.23,1.69,1.69,0,0,1-.19-2,1.93,1.93,0,0,0,.42,1.08,1.76,1.76,0,0,0,1.17.62,1.63,1.63,0,0,0,1.74-1.37A1.87,1.87,0,0,0,81.51,30.28Z"/><path class="cls-1" d="M64.05,35.82a3,3,0,0,0,.81,1.07,1.48,1.48,0,0,0,1.2.36h0a1.92,1.92,0,0,0,1-.56,3.26,3.26,0,0,0,.62-1.3,2,2,0,0,1-.93,2.68,1.82,1.82,0,0,1-.94.18,2,2,0,0,1-1.39-.79A1.79,1.79,0,0,1,64.05,35.82Z"/><path class="cls-1" d="M63,35.36a3,3,0,0,1-1.5-1.46A1.88,1.88,0,0,1,61.4,33a3.17,3.17,0,0,1,.27-1,2.15,2.15,0,0,0,.3,1.53,2.06,2.06,0,0,0,1.44.73C63.29,34.65,63.17,35,63,35.36Z"/><path class="cls-1" d="M68.85,34.22a3.76,3.76,0,0,0,1.06-.07A2.94,2.94,0,0,0,71,33.68a3.29,3.29,0,0,0,.78-.8c.19-.29.35-.59.54-.89a2.38,2.38,0,0,1-.51,1.85,2.25,2.25,0,0,1-2,.81A1.83,1.83,0,0,1,68.85,34.22Z"/><path class="cls-1" d="M84.41,30.16a4.74,4.74,0,0,0,.27-1,4,4,0,0,0,0-1,2.8,2.8,0,0,0-.3-1,2.32,2.32,0,0,0-.69-.77,2.53,2.53,0,0,1,.87.57,3.07,3.07,0,0,1,.66,1,4.89,4.89,0,0,1,.29,1.3,5.55,5.55,0,0,1,0,1.08Z"/><polygon class="cls-2" points="1.01 79.86 21.68 71.13 30.14 88.38 9.48 97.12 9.51 86.69 1.01 79.86"/><path class="cls-1" d="M9.48,98.13a1,1,0,0,1-1-1l0-9.94L.38,80.65a1,1,0,0,1,.24-1.72L21.28,70.2a1,1,0,0,1,1.31.48l8.46,17.26a1,1,0,0,1,0,.8,1,1,0,0,1-.55.58L9.87,98.05A1,1,0,0,1,9.48,98.13ZM3,80.13l7.17,5.77a1,1,0,0,1,.38.79l0,8.9,18.27-7.72L21.19,72.43Z"/><path class="cls-1" d="M14.27,82.21c-1.61-2.67,3.6-5,6.68-6.44S28,90,28,90,15.87,84.89,14.27,82.21Z"/><path class="cls-1" d="M28,91a1.09,1.09,0,0,1-.39-.08C25.49,90,15.09,85.55,13.4,82.73a2.86,2.86,0,0,1-.32-2.36c.7-2.31,4.17-4,7-5.29l.48-.23a2,2,0,0,1,.85-.19c1.21,0,2.91.89,5.37,7.82,1.27,3.58,2.16,7.09,2.2,7.24a1,1,0,0,1-.33,1A1,1,0,0,1,28,91Zm-6.58-14.3-.46.23c-2,1-5.45,2.6-5.89,4a.82.82,0,0,0,.12.73c.9,1.52,6.79,4.51,11.3,6.52C24.73,82.09,22.45,76.82,21.37,76.68Z"/><polygon class="cls-2" points="128.75 79.86 108.09 71.13 99.62 88.38 120.28 97.12 120.25 86.69 128.75 79.86"/><path class="cls-1" d="M120.28,98.13a1.09,1.09,0,0,1-.39-.08L99.23,89.32a1,1,0,0,1-.56-.58,1,1,0,0,1,0-.8l8.47-17.26a1,1,0,0,1,1.3-.48l20.67,8.73a1,1,0,0,1,.6.79,1,1,0,0,1-.36.93l-8.12,6.52,0,9.94a1,1,0,0,1-.46.85A1,1,0,0,1,120.28,98.13ZM101,87.87l18.27,7.72,0-8.9a1,1,0,0,1,.38-.79l7.18-5.77-18.23-7.7Z"/><path class="cls-1" d="M115.5,82.21c1.6-2.67-3.61-5-6.69-6.44s-7,14.2-7,14.2S113.89,84.89,115.5,82.21Z"/><path class="cls-1" d="M101.81,91a1,1,0,0,1-.66-.24,1,1,0,0,1-.32-1c0-.15.92-3.66,2.19-7.24,2.46-6.93,4.16-7.82,5.37-7.82a2,2,0,0,1,.86.19l.48.23c2.79,1.33,6.26,3,7,5.29a2.86,2.86,0,0,1-.32,2.36c-1.68,2.82-12.09,7.3-14.16,8.17A1,1,0,0,1,101.81,91Zm6.56-14.3c-1.06.14-3.34,5.41-5.05,11.53,4.52-2,10.4-5,11.31-6.52a.85.85,0,0,0,.12-.73c-.44-1.45-3.85-3.08-5.89-4Z"/><path class="cls-2" d="M10.49,53.06l-.26.23c-.37.32-.6.74,0,2.9A14.36,14.36,0,0,0,10.92,58c.15.33.3.65.47,1l-.32,0-.24.27h0c-.79.92.61,3.79,1.82,5.56L12.3,65l-.21.28h0c-.7,1,1.11,3.75,2.45,5.32l-.35.15-.17.32c-.17.32-.41.77,1,2.74a15.64,15.64,0,0,0,2,2.26l-.3.17-.14.33h0c-.47,1.2,1.94,3.43,3.55,4.64l-.29.21-.1.34c-.14.47-.12,1,1.56,2.48A16,16,0,0,0,23.79,86l-.25.23-.06.35h0c-.18,1.23,2.61,2.9,4.48,3.74l-.24.28,0,.35a1,1,0,0,0,.28.79H57.09a17.37,17.37,0,0,0-1.69-1.12,6.42,6.42,0,0,0-2.31-1,1.07,1.07,0,0,0-.66.22l-.29.27,0,.09c-1-.88-2.59-2.12-3.38-2.12a1.06,1.06,0,0,0-.6.18l-.29.23,0,.06c-.1-.11-.2-.23-.3-.33L47.31,88,47.23,88l-.56-.54-.25-.23L46.17,87c-1-.86-1.4-.86-1.61-.86a1,1,0,0,0-.53.14l-.27.17,0,.07c-.85-1.18-2.2-2.86-3.08-2.86h-.2l-.51.24,0,0c-.07-.13-.15-.25-.22-.37-.22-.38-.44-.71-.64-1l-.2-.29c-1-1.39-1.43-1.51-1.81-1.51h-.16l-.44.15-.06.06a13.34,13.34,0,0,0-1.63-3,1.3,1.3,0,0,0-1-.54l-.5.1-.06,0C33,77,32.86,76.49,32.67,76l-.13-.29c-.64-1.59-1.09-1.9-1.66-1.9l-.37,0-.08.06c-.13-.71-.3-1.36-.46-1.94a7.44,7.44,0,0,0-.39-1.07c-.11-.29-.39-1-1.1-1h-.36l-.05,0a15.91,15.91,0,0,0-.24-2c-.23-1.39-.49-2.12-1.31-2.24h-.34c.08-1.58,0-4-1-4.33l-.15,0h-.25c.29-1.66.49-4-.52-4.43l-.2-.08h-.2c0-.15.09-.3.12-.44.14-.54.22-1,.29-1.45V55c.28-1.54.16-2.2-.45-2.53l-.28-.13h-.09c.66-1.57,1.39-3.82.47-4.45l-.27-.17h-.1c.22-.39.41-.76.58-1.11s.22-.49.29-.7l.12-.31c.07-.21.13-.4.17-.57s.05-.17.07-.25.06-.32.07-.45a1.2,1.2,0,0,0-.36-1l-.26-.21h0a13.79,13.79,0,0,0,1-1.71c.59-1.05,1-1.9.41-2.51l-.23-.22-.09,0,.27-.34.26-.3.24-.31c.18-.21.33-.42.46-.6.89-1.27,1.06-1.92.64-2.49l-.2-.24-.06,0c.23-.2.43-.4.63-.59a9.84,9.84,0,0,0,.78-.87l.37-.47.07-.09.22-.29a1.35,1.35,0,0,0,.25-1.49L29,30.29l-.07,0c.34-.25.67-.51,1-.77,1.84-1.54,2-2.11,1.74-2.74l-.14-.29-.07-.05.37-.21a12.07,12.07,0,0,0,1.32-.87,8.55,8.55,0,0,0,.86-.74,1.32,1.32,0,0,0,.55-1.38l-.1-.3,0,0,.41-.19c.29-.14.55-.28.8-.42s.34-.19.53-.28c1.39-.75,1.83-1.25,1.7-1.95l-.07-.31-.07-.07.41-.13.4-.13c.43-.14.78-.28,1.08-.41a7.67,7.67,0,0,0,1.24-.68,1.3,1.3,0,0,0,.6-1v0l0-.37-.18-.24,0-.05,1.5-1,.26-.18,2.7-1.51a4.13,4.13,0,0,1,.43-.21l.22-.1.28-.13a1.3,1.3,0,0,0,.7-.77,1.45,1.45,0,0,0-.7-1.79l1.16-.53.27-.11,0,0a1.4,1.4,0,0,0,.79-.74,1.5,1.5,0,0,0,0-1.12,1.47,1.47,0,0,0-.59-.69l.41-.16L50,7.08a1.46,1.46,0,0,0,.87-1.82,1.41,1.41,0,0,0-1.35-1,1.43,1.43,0,0,0-.5.09l-1.31.48L47.2,5a1.41,1.41,0,0,0,0-1,1.43,1.43,0,0,0-1.35-.91,1.36,1.36,0,0,0-.49.08,5.21,5.21,0,0,0-.54.21l-1.42.66a1.42,1.42,0,0,0-.09-.93A1.44,1.44,0,0,0,42,2.38a1.42,1.42,0,0,0-.64.14L41,2.69l-.21.1a7.67,7.67,0,0,0-.72.35L36.66,5l-.48.31-2.1,1.4L34,6.63l-.24-.31-.44-.14h-.19a1.36,1.36,0,0,0-.84.34,7.38,7.38,0,0,0-.76.71L31,7.82a15.45,15.45,0,0,0-1.75,2.48L29,10.07,28.69,10l-.18,0c-.34,0-.77,0-2.06,1.78a10.22,10.22,0,0,0-1,1.76c-.16.33-.31.66-.44,1l-.28-.23-.41,0a1.56,1.56,0,0,0-1.2.79l0,.05c-.22.33-.48.76-.74,1.25s-.56,1.16-.8,1.77c-.13.33-.25.67-.36,1L20.9,19h-.38c-1.16.06-2.23,3-2.63,5.22l-.23-.12h-.42c-.62.1-.88.68-1,1a7.67,7.67,0,0,0-.5,1.48,17.65,17.65,0,0,0-.5,3L15,29.51h-.35l-.14,0c-.49.14-.86.41-1.23,2.63a14.32,14.32,0,0,0-.21,2c0,.36,0,.72,0,1.07l-.11,0h-.36l-.19.08c-.33.14-.81.35-1,2.72v0a18.17,18.17,0,0,0,.22,3h-.44l-.22.11c-.54.27-.77.77-.62,2.88a15.52,15.52,0,0,0,.49,3h-.34l-.26.18c-1,.68-.25,3.82.52,5.81Z"/><path class="cls-2" d="M101.78,91.74a1,1,0,0,0,.28-.81l0-.38-.2-.22c.33-.14.66-.29,1-.46l.47-.25c.29-.17.58-.34.83-.51,2.42-1.59,2.27-2.23,2.17-2.61l-.07-.31L106,86a15.4,15.4,0,0,0,2.5-1.78c1.65-1.5,1.67-2,1.53-2.44l-.12-.38-.26-.17a15.41,15.41,0,0,0,2-1.7c.11-.11.22-.22.31-.33s.38-.42.53-.61c.7-.87,1-1.47.71-2.07l-.12-.28-.29-.16a15.39,15.39,0,0,0,1.47-1.53c.21-.25.4-.5.58-.75a8.46,8.46,0,0,0,1-1.72,1.22,1.22,0,0,0,0-1l-.2-.32-.29-.12c.12-.13.25-.27.36-.41a14.58,14.58,0,0,0,1.94-3.11c.3-.67.53-1.32.09-1.85h0l-.2-.25-.3-.09a14.43,14.43,0,0,0,1.77-3.43,6.88,6.88,0,0,0,.26-.9,2.37,2.37,0,0,0,0-.55,1.12,1.12,0,0,0-.3-.71,1.06,1.06,0,0,0-.54-.29h0c.17-.31.33-.64.48-1,.23-.53.41-1,.55-1.39,0-.16.1-.31.14-.46.6-2.15.36-2.57,0-2.88l-.29-.25-.34,0c.78-2,1.51-5.14.51-5.82l-.29-.18h-.3c0-.18.1-.35.14-.54a16.06,16.06,0,0,0,.36-2.46c0-.41,0-.8,0-1.14,0-.62,0-1.39-.65-1.71l-.24-.12h-.43c0-.18.06-.36.08-.54l.06-.54c0-.49.07-1,.08-1.49V38c-.15-2.37-.64-2.58-1-2.73l-.19-.07h-.36l-.1,0c0-.36,0-.72,0-1.1a9.54,9.54,0,0,0-.07-1l-.06-.51c0-.15-.05-.29-.07-.44-.37-2.21-.75-2.48-1.23-2.62l-.15,0h-.36l-.16.06a14.86,14.86,0,0,0-.18-1.52l0-.17c-.08-.42-.17-.84-.28-1.29-.06-.25-.13-.47-.19-.68l-.07-.21c-.09-.24-.17-.43-.23-.56-.18-.37-.45-.95-1.07-1.05h-.44l-.2.11a14,14,0,0,0-1-3.33c0-.12-.11-.24-.16-.35s-.22-.42-.31-.58c-.21-.37-.54-.93-1.14-1h-.43l-.21.15h0c-.11-.34-.23-.68-.37-1s-.26-.64-.39-.94-.27-.57-.41-.83-.26-.49-.39-.7a5.94,5.94,0,0,0-.35-.55l0-.05-.17-.21a1.39,1.39,0,0,0-1-.58l-.45.05-.24.21q-.21-.48-.45-1c-.16-.31-.31-.62-.48-.9a7,7,0,0,0-.53-.82l-.48-.63c-.74-.9-1.11-1.18-1.6-1.18l-.55.1-.19.21a14.85,14.85,0,0,0-1.76-2.48c-.27-.32-.54-.6-.78-.84s-.31-.29-.43-.39a1.43,1.43,0,0,0-.93-.41,1,1,0,0,0-.37.07L96,6.34l-.21.29a1.25,1.25,0,0,0-.08.12l-2.1-1.41L93.08,5,89.73,3.14A7.62,7.62,0,0,0,89,2.79l-.24-.11-.34-.16a1.42,1.42,0,0,0-.64-.14,1.44,1.44,0,0,0-1.31.82,1.36,1.36,0,0,0-.09.93L85,3.47a4.77,4.77,0,0,0-.52-.21A1.36,1.36,0,0,0,84,3.18a1.44,1.44,0,0,0-1.36.91,1.47,1.47,0,0,0,0,1l-.51-.19-1.3-.48a1.37,1.37,0,0,0-.49-.09,1.41,1.41,0,0,0-1.35,1,1.44,1.44,0,0,0,.86,1.82L81,7.55l.44.16a1.4,1.4,0,0,0-.6.69,1.45,1.45,0,0,0,0,1.12,1.35,1.35,0,0,0,.78.74l0,0a1.37,1.37,0,0,1,.27.1l1.15.54a1.44,1.44,0,0,0-.63.66,1.48,1.48,0,0,0-.06,1.13,1.35,1.35,0,0,0,.71.77l.25.11.25.12a3.27,3.27,0,0,1,.42.21l2.67,1.49.3.2,1.49,1,0,.05-.2.27,0,.34v0a.78.78,0,0,0,0,.16l-2.42.78h2.93a4.13,4.13,0,0,0,.49.32l.52.28.3.13a10.25,10.25,0,0,0,1.08.42l.4.13.42.13-.09.1-.06.29c-.13.69.32,1.19,1.74,2,.16.07.32.17.5.26s.51.28.79.41l.42.19-.08.08-.08.27a1.31,1.31,0,0,0,.55,1.37,9.83,9.83,0,0,0,.86.74,14.35,14.35,0,0,0,1.32.87l.38.21-.1.07-.11.26c-.45,1,1.29,2.5,2.72,3.53l-.09,0-.15.25a1.38,1.38,0,0,0,.28,1.52l.2.26.43.56a13.61,13.61,0,0,0,1.42,1.46l-.1,0-.17.23c-.42.56-.25,1.21.64,2.47.24.35.55.72.87,1.11l.07.08.31.38-.13,0-.19.19c-.59.62-.2,1.47.39,2.52a14.15,14.15,0,0,0,1,1.71l-.09,0-.22.2c-.42.38-.55.94.07,2.51a13.74,13.74,0,0,0,.88,1.84h-.15l-.23.15c-.92.63-.18,2.89.47,4.46h-.14l-.22.12c-.62.33-.74,1-.46,2.52V55c.07.4.15.91.29,1.45l.12.44h-.22l-.19.08c-1,.43-.79,2.77-.51,4.42h-.27l-.15.05c-1,.34-1.08,2.74-1,4.32h-.38c-.78.11-1,.84-1.27,2.19a17,17,0,0,0-.25,2l-.11,0h-.27a1.33,1.33,0,0,0-1.12,1,9.56,9.56,0,0,0-.4,1.11c-.16.57-.32,1.22-.45,1.92l-.11-.07-.35,0c-.56,0-1,.31-1.65,1.88a15.29,15.29,0,0,0-.68,1.88l-.08-.07-.25,0-.22,0c-1,0-2,2.08-2.62,3.5l-.08-.09-.42-.13h-.15c-.39,0-.84.12-1.82,1.52l-.19.29a11.16,11.16,0,0,0-.64,1l-.23.39-.06-.08-.49-.21h-.19c-.88,0-2.24,1.7-3.09,2.88a1.12,1.12,0,0,0-.3-.27l-.25-.13H85.2c-.19,0-.65,0-1.87,1.1l-.24.22c-.26.24-.55.51-.84.82-.11.11-.21.24-.32.36h0l-.07-.13-.51-.35H81c-.74,0-2.25,1.12-3.41,2.14a1.16,1.16,0,0,0-.24-.34L77,89.65h-.34a6.38,6.38,0,0,0-2.3,1,18.35,18.35,0,0,0-1.7,1.13Z"/><path class="cls-1" d="M48.85,91.74H50.2l0,0,0,0h2c-1.64-1.63-3.4-2.73-3.56-2.62a.05.05,0,0,0,0,0,6.78,6.78,0,0,0,.13,2.39A1.29,1.29,0,0,0,48.85,91.74Z"/><path class="cls-1" d="M55.3,91.74l-.43-.26a4.7,4.7,0,0,0-1.82-.81s0,0,0,0a3.38,3.38,0,0,0,.08,1Z"/><path class="cls-1" d="M44.72,91.56l.06.18h1.78c-.15-.31-.28-.61-.39-.86l-.45-1,.49.84.52.87.13.2h1.22a11.72,11.72,0,0,1-.17-1.48A16.93,16.93,0,0,0,46.79,89c-.37-.39-.74-.72-1-1-.63-.57-1.12-.87-1.2-.83l0,0a6.72,6.72,0,0,0-.12,2.38A11.36,11.36,0,0,0,44.72,91.56Z"/><path class="cls-1" d="M48.85,91.74H50.2l0,0,0,0h2c-1.64-1.63-3.4-2.73-3.56-2.62a.05.05,0,0,0,0,0,6.78,6.78,0,0,0,.13,2.39A1.29,1.29,0,0,0,48.85,91.74Z"/><path class="cls-1" d="M41.16,91.74H43l-.3-.75c-.34-.88-.63-1.77-.84-2.42-.11-.33-.19-.6-.24-.8l-.08-.3.1.25c.06.15.16.38.28.64.25.53.59,1.25,1,2,.26.49.53,1,.77,1.41H44c0-.16-.08-.32-.11-.48a12.49,12.49,0,0,1-.22-1.61,9.88,9.88,0,0,1,0-1.51,11.14,11.14,0,0,0-3-3.51s0,0,0,0a6.82,6.82,0,0,0-.4,2.36,10.16,10.16,0,0,0,.71,4.22Z"/><path class="cls-1" d="M44.72,91.56l.06.18h1.78c-.15-.31-.28-.61-.39-.86l-.45-1,.49.84.52.87.13.2h1.22a11.72,11.72,0,0,1-.17-1.48A16.93,16.93,0,0,0,46.79,89c-.37-.39-.74-.72-1-1-.63-.57-1.12-.87-1.2-.83l0,0a6.72,6.72,0,0,0-.12,2.38A11.36,11.36,0,0,0,44.72,91.56Z"/><path class="cls-1" d="M29.62,91.74h4.69c-.48,0-.93-.1-1.3-.16l-.9-.13.81,0c.49,0,1.12,0,1.77,0l1.75-.07.78,0a8.17,8.17,0,0,1-1-1.66l-.68,0A16.5,16.5,0,0,0,28.73,91s0,0,0,0S29.05,91.38,29.62,91.74Z"/><path class="cls-1" d="M37.71,90.67a6.16,6.16,0,0,0,1,1.07h.68c-.06-.19-.18-.53-.31-.95-.22-.69-.51-1.58-.73-2.51s-.45-1.8-.57-2.5l-.2-1.13.29.94c.17.57.44,1.3.72,2s.59,1.5.84,2,.42.94.42.94a11.17,11.17,0,0,1-.39-3.57,13.43,13.43,0,0,1,.16-1.5c-.13-.27-.26-.53-.4-.79s-.27-.5-.4-.74c-.27-.46-.57-.86-.81-1.21-.48-.7-.89-1.1-1-1.07l0,0a6.54,6.54,0,0,0-.65,2.29,10,10,0,0,0,.22,4.28A8.58,8.58,0,0,0,37.71,90.67Z"/><path class="cls-1" d="M41.16,91.74H43l-.3-.75c-.34-.88-.63-1.77-.84-2.42-.11-.33-.19-.6-.24-.8l-.08-.3.1.25c.06.15.16.38.28.64.25.53.59,1.25,1,2,.26.49.53,1,.77,1.41H44c0-.16-.08-.32-.11-.48a12.49,12.49,0,0,1-.22-1.61,9.88,9.88,0,0,1,0-1.51,11.14,11.14,0,0,0-3-3.51s0,0,0,0a6.82,6.82,0,0,0-.4,2.36,10.16,10.16,0,0,0,.71,4.22Z"/><path class="cls-1" d="M29.34,89.78c.65-.2,1.33-.36,1.54-.41A23,23,0,0,1,33.54,89h0l-.18-.22-.86-.14c-.51-.09-1.22-.2-1.91-.35l-1.92-.44c-.53-.12-.87-.22-.87-.22l.22,0,.58.08,1.76.19c.63.07,1.27.11,1.75.13l.78,0a7.54,7.54,0,0,1-.8-1.75l-.66-.11a16.67,16.67,0,0,0-6.94.54s0,0,0,0C24.42,87,26.63,88.92,29.34,89.78Z"/><path class="cls-1" d="M32.59,85a7.35,7.35,0,0,0,.86,2.44,5.31,5.31,0,0,0,1.17,1.47h.44s-.11-.47-.27-1.18-.3-1.66-.44-2.58-.22-1.87-.29-2.54S34,81.42,34,81.42s0,.39.18,1,.28,1.36.49,2.13.43,1.54.61,2.13l.32,1a11.89,11.89,0,0,1,.32-5,10.78,10.78,0,0,0-2.15-4.08h0A10.13,10.13,0,0,0,32.59,85Z"/><path class="cls-1" d="M29.62,91.74h4.69c-.48,0-.93-.1-1.3-.16l-.9-.13.81,0c.49,0,1.12,0,1.77,0l1.75-.07.78,0a8.35,8.35,0,0,1-1-1.66l-.68,0A16.5,16.5,0,0,0,28.73,91s0,0,0,0S29.05,91.38,29.62,91.74Z"/><path class="cls-1" d="M37.71,90.67a6.16,6.16,0,0,0,1,1.07h.68c-.06-.19-.18-.53-.31-.95-.22-.69-.51-1.58-.73-2.51s-.45-1.8-.57-2.5l-.2-1.13.29.94c.17.57.44,1.3.72,2s.59,1.5.84,2,.42.94.42.94a11.17,11.17,0,0,1-.39-3.57,13.43,13.43,0,0,1,.16-1.5c-.13-.27-.26-.53-.4-.79s-.27-.5-.4-.74c-.27-.46-.57-.86-.81-1.21-.48-.7-.89-1.1-1-1.07l0,0a6.54,6.54,0,0,0-.65,2.29,10,10,0,0,0,.22,4.28A8.58,8.58,0,0,0,37.71,90.67Z"/><path class="cls-1" d="M25.24,85.59c.67-.12,1.35-.19,1.56-.22a25.87,25.87,0,0,1,2.71-.13h0L29.35,85s-1.36-.34-2.7-.79c-.68-.22-1.36-.45-1.86-.65L24,83.24l.78.2c.47.12,1.09.27,1.73.39l1.71.33.78.12a8.35,8.35,0,0,1-.6-1.83l-.65-.18A16.66,16.66,0,0,0,20.75,82s0,0,0,0,.44.69,1.24,1.42A13.38,13.38,0,0,0,25.24,85.59Z"/><path class="cls-1" d="M29,81.19a8.26,8.26,0,0,0,.6,2.51,6.06,6.06,0,0,0,1,1.6l.44,0s-.07-.47-.12-1.2-.15-1.66-.16-2.61c-.07-1.89.05-3.71.05-3.71s.08,1.56.32,3.14c.1.8.26,1.58.38,2.18l.2,1a11.22,11.22,0,0,1,.4-3.57,12.86,12.86,0,0,1,.49-1.43,17.08,17.08,0,0,0-1-3c-.32-.79-.62-1.28-.72-1.27l0,0A10.25,10.25,0,0,0,29,81.19Z"/><path class="cls-1" d="M29.34,89.78c.65-.2,1.33-.36,1.54-.41A23,23,0,0,1,33.54,89c-.06-.07-.13-.14-.19-.22l-.85-.14c-.52-.09-1.22-.2-1.91-.35l-1.92-.44c-.53-.12-.87-.22-.87-.22l.22,0,.58.08,1.76.19C31,88,31.63,88,32.1,88l.79,0a8.07,8.07,0,0,1-.8-1.75l-.66-.11a16.67,16.67,0,0,0-6.94.54s0,0,0,0C24.42,87,26.63,88.92,29.34,89.78Z"/><path class="cls-1" d="M32.59,85a7.35,7.35,0,0,0,.86,2.44,5.31,5.31,0,0,0,1.17,1.47h.44s-.11-.47-.27-1.18-.3-1.66-.44-2.58-.22-1.87-.29-2.54S34,81.42,34,81.42s0,.39.18,1,.28,1.36.49,2.13.43,1.54.61,2.13.32,1,.32,1a11.89,11.89,0,0,1,.32-5,10.78,10.78,0,0,0-2.15-4.08h0A10.13,10.13,0,0,0,32.59,85Z"/><path class="cls-1" d="M21.61,81c.69-.06,1.38-.06,1.59-.06a24.15,24.15,0,0,1,2.7.18h0l-.13-.26L25,80.53c-.48-.19-1.13-.47-1.79-.75l-1.76-.86-.81-.41.76.28,1.67.58c.6.21,1.23.38,1.68.51l.76.21a7.55,7.55,0,0,1-.4-1.87c-.2-.09-.4-.18-.62-.26a18.71,18.71,0,0,0-4.38-1,7.91,7.91,0,0,0-2.51,0s0,0,0,0C17.41,77.17,19.16,79.55,21.61,81Z"/><path class="cls-1" d="M25.83,77A6.82,6.82,0,0,0,27,81.28l.43.09s0-1.94.13-3.82c.06-.93.2-1.87.29-2.55l.12-.82.05-.31s0,.1,0,.27l0,.7c0,.58,0,1.39,0,2.18s.07,1.62.12,2.22l.11,1a10.93,10.93,0,0,1,.78-3.5,14.38,14.38,0,0,1,.64-1.35A16.4,16.4,0,0,0,29,72.28a8.25,8.25,0,0,0-.35-1c-.1-.24-.18-.37-.23-.37h0a7,7,0,0,0-1.37,2A9.89,9.89,0,0,0,25.83,77Z"/><path class="cls-1" d="M25.24,85.59c.67-.12,1.35-.19,1.56-.22a25.81,25.81,0,0,1,2.7-.13L29.34,85s-1.35-.34-2.69-.79c-.68-.22-1.37-.45-1.86-.65L24,83.24l.78.2c.47.12,1.09.27,1.73.39l1.71.33.78.12a8.54,8.54,0,0,1-.6-1.83l-.65-.18A16.66,16.66,0,0,0,20.75,82s0,0,0,0,.44.69,1.24,1.42A13.38,13.38,0,0,0,25.24,85.59Z"/><path class="cls-1" d="M29,81.19a8.26,8.26,0,0,0,.6,2.51,6.06,6.06,0,0,0,1,1.6l.44,0s-.07-.47-.12-1.2-.15-1.66-.16-2.61c-.07-1.89.05-3.71.05-3.71s.08,1.56.32,3.14c.1.8.26,1.58.38,2.18l.2,1a11.22,11.22,0,0,1,.4-3.57,12.86,12.86,0,0,1,.49-1.43,17.08,17.08,0,0,0-1-3c-.32-.79-.62-1.28-.72-1.27l0,0A10.25,10.25,0,0,0,29,81.19Z"/><path class="cls-1" d="M18.53,76c.68,0,1.36.11,1.57.13a23.74,23.74,0,0,1,2.67.47h0c0-.09-.07-.18-.1-.28l-.77-.4c-.48-.24-1.08-.59-1.69-1-1.23-.72-2.42-1.55-2.42-1.55l.72.38c.42.22,1,.5,1.6.76l1.6.7.73.28a7.7,7.7,0,0,1-.18-1.91c-.18-.11-.38-.21-.59-.32a17.4,17.4,0,0,0-2.15-.89c-.73-.24-1.46-.42-2.1-.57a7.38,7.38,0,0,0-2.48-.31l0,0a4.83,4.83,0,0,0,.9,1.66A13.37,13.37,0,0,0,18.53,76Z"/><path class="cls-1" d="M23.16,72.54a6.91,6.91,0,0,0,.64,4.36l.42.13,0-.33c0-.21.06-.51.11-.87.11-.73.23-1.66.42-2.58s.39-1.83.56-2.5.31-1.11.31-1.11l-.14,1c-.09.59-.16,1.36-.24,2.16s-.08,1.6-.11,2.22l0,.74V76a11.9,11.9,0,0,1,1.17-3.39,12.66,12.66,0,0,1,.8-1.28,15.76,15.76,0,0,0-.27-3.16c-.14-.84-.32-1.39-.42-1.4h0a6.7,6.7,0,0,0-1.59,1.79,10.54,10.54,0,0,0-1,1.8A8.41,8.41,0,0,0,23.16,72.54Z"/><path class="cls-1" d="M21.61,81c.69-.06,1.38-.06,1.59-.06a23.85,23.85,0,0,1,2.69.18l-.14-.26-.8-.33-1.79-.75-1.76-.86-.81-.41.76.28,1.67.58c.6.21,1.23.38,1.68.51l.75.21a8.71,8.71,0,0,1-.39-1.87c-.2-.09-.4-.18-.62-.26a18.71,18.71,0,0,0-4.38-1,7.91,7.91,0,0,0-2.51,0s0,0,0,0C17.41,77.17,19.16,79.55,21.61,81Z"/><path class="cls-1" d="M25.83,77A6.82,6.82,0,0,0,27,81.28l.43.09s0-1.94.13-3.82c.06-.93.2-1.87.29-2.55l.12-.82.05-.31s0,.1,0,.27l0,.7c0,.58,0,1.39,0,2.18s.07,1.62.12,2.22.11,1,.11,1a10.93,10.93,0,0,1,.78-3.5,14.38,14.38,0,0,1,.64-1.35A16.4,16.4,0,0,0,29,72.28a8.25,8.25,0,0,0-.35-1c-.1-.24-.18-.37-.23-.37h0a7,7,0,0,0-1.37,2A9.89,9.89,0,0,0,25.83,77Z"/><path class="cls-1" d="M16,70.71c.67.1,1.35.26,1.55.31a23.6,23.6,0,0,1,2.59.76h0l-.07-.28s-.3-.19-.72-.49L17.8,69.87c-.58-.43-1.11-.88-1.54-1.23l-.7-.58s1.1.73,2.18,1.39S20,70.69,20,70.69a8.88,8.88,0,0,1,0-1.92l-.54-.39a14,14,0,0,0-2.05-1.12c-.69-.32-1.37-.59-2-.81A8.11,8.11,0,0,0,13,65.87h0C12.78,66.05,13.94,68.77,16,70.71Z"/><path class="cls-1" d="M21,67.78a6.79,6.79,0,0,0,.15,4.4l.4.18s.11-.47.27-1.18.43-1.62.71-2.52.59-1.77.84-2.41l.42-1.07s-.1.38-.24.94-.34,1.35-.48,2.13c-.32,1.57-.49,3.2-.49,3.2a10.1,10.1,0,0,1,.7-1.83,13.83,13.83,0,0,1,.84-1.41A13.21,13.21,0,0,1,25.05,67a10.67,10.67,0,0,0-.17-4.6h0A6.63,6.63,0,0,0,23.07,64a12.34,12.34,0,0,0-1.2,1.68A9.3,9.3,0,0,0,21,67.78Z"/><path class="cls-1" d="M18.53,76c.68,0,1.36.11,1.57.13a23.74,23.74,0,0,1,2.67.47l-.1-.28-.78-.4c-.47-.25-1.07-.6-1.68-1-1.24-.72-2.42-1.55-2.42-1.55l.72.38c.42.22,1,.5,1.6.76l1.6.7.73.28a7.7,7.7,0,0,1-.18-1.91c-.18-.11-.38-.21-.59-.32a17.4,17.4,0,0,0-2.15-.89c-.73-.24-1.46-.42-2.1-.57a7.38,7.38,0,0,0-2.48-.31l0,0a4.83,4.83,0,0,0,.9,1.66A13.37,13.37,0,0,0,18.53,76Z"/><path class="cls-1" d="M23.16,72.54a6.91,6.91,0,0,0,.64,4.36l.42.13,0-.33c0-.21.06-.51.11-.87.11-.73.23-1.66.42-2.58s.39-1.83.56-2.5.31-1.11.31-1.11l-.14,1c-.09.59-.16,1.36-.24,2.16s-.08,1.6-.11,2.22l0,.74V76a11.9,11.9,0,0,1,1.17-3.39,12.66,12.66,0,0,1,.8-1.28,15.76,15.76,0,0,0-.27-3.16c-.14-.84-.32-1.39-.42-1.4h0a6.7,6.7,0,0,0-1.59,1.79,10.54,10.54,0,0,0-1,1.8A8.41,8.41,0,0,0,23.16,72.54Z"/><path class="cls-1" d="M14.11,65.17c.66.18,1.3.4,1.51.47a21.89,21.89,0,0,1,2.49,1.06h0l0-.29-.66-.57C17,65.49,16.48,65,16,64.53l-1.4-1.39L14,62.48l.61.53c.37.31.89.7,1.4,1.09,1,.79,2.05,1.48,2.05,1.48a7.41,7.41,0,0,1,.25-1.9c-.16-.15-.32-.3-.5-.44s-.62-.49-.94-.71-.64-.44-1-.64c-.66-.4-1.32-.74-1.92-1A8.21,8.21,0,0,0,11.61,60l0,0C11.43,60.16,12.23,63,14.11,65.17Z"/><path class="cls-1" d="M19.4,62.81a7.52,7.52,0,0,0-.55,2.53,5.09,5.09,0,0,0,.21,1.86l.38.22s.14-.46.39-1.13.62-1.57,1-2.42.8-1.7,1.11-2.31c.15-.31.3-.56.39-.74l.16-.27s-.16.36-.37.91l-.71,2c-.23.76-.44,1.54-.6,2.13-.08.3-.15.55-.18.72l-.07.28a11.46,11.46,0,0,1,1.9-3,10.9,10.9,0,0,1,1.06-1.07c.54-2.33.53-4.52.34-4.6h0a7,7,0,0,0-2,1.4,12.36,12.36,0,0,0-1.36,1.53c-.21.3-.42.61-.62.94A9.48,9.48,0,0,0,19.4,62.81Z"/><path class="cls-1" d="M16,70.71c.67.1,1.35.26,1.55.31a24.25,24.25,0,0,1,2.59.76l-.07-.28s-.31-.19-.73-.49L17.8,69.87c-.58-.43-1.12-.88-1.54-1.23l-.7-.58s1.1.73,2.18,1.39S20,70.69,20,70.69a9.55,9.55,0,0,1,0-1.92l-.54-.39a14,14,0,0,0-2.05-1.12c-.69-.32-1.37-.59-2-.81A8.11,8.11,0,0,0,13,65.87h0C12.78,66.05,13.94,68.77,16,70.71Z"/><path class="cls-1" d="M21,67.78a6.79,6.79,0,0,0,.15,4.4l.4.18.27-1.18c.16-.69.43-1.62.71-2.52s.59-1.77.84-2.41l.42-1.07s-.1.38-.24.94-.34,1.35-.48,2.13c-.32,1.57-.49,3.2-.49,3.2a10.1,10.1,0,0,1,.7-1.83,13.83,13.83,0,0,1,.84-1.41A13.21,13.21,0,0,1,25.05,67a10.67,10.67,0,0,0-.17-4.6h0A6.63,6.63,0,0,0,23.07,64a12.34,12.34,0,0,0-1.2,1.68A9.3,9.3,0,0,0,21,67.78Z"/><path class="cls-1" d="M12.85,59.44c.63.25,1.25.55,1.44.64.64.33,1.5.78,2.36,1.33h0v-.29l-.6-.64c-.35-.39-.8-.92-1.27-1.46s-.91-1.11-1.23-1.54L13,56.76l.56.59c.34.35.77.81,1.25,1.25.94.88,1.87,1.7,1.87,1.7a8.81,8.81,0,0,1,.47-1.87c-.14-.16-.3-.33-.46-.49A16.28,16.28,0,0,0,10.93,54h0a4.75,4.75,0,0,0,.3,1.86,14.8,14.8,0,0,0,.64,1.71c.14.31.28.61.45.92A10.4,10.4,0,0,0,12.85,59.44Z"/><path class="cls-1" d="M18.35,57.69a8.87,8.87,0,0,0-.83,2.45,6.13,6.13,0,0,0,0,1.88l.34.26s.21-.43.54-1.08.75-1.49,1.25-2.3.95-1.6,1.36-2.17l.65-.94-.45.86c-.29.53-.61,1.23-.94,2l-.47,1.09c-.14.35-.27.68-.37,1l-.36,1a11,11,0,0,1,2.23-2.82,12.18,12.18,0,0,1,1.17-.94q.15-.43.27-.84c.09-.28.17-.55.23-.81.14-.53.22-1,.29-1.43a2.91,2.91,0,0,0,.06-1.46h0A10.2,10.2,0,0,0,18.35,57.69Z"/><path class="cls-1" d="M14.11,65.17c.66.18,1.3.4,1.51.47a21.89,21.89,0,0,1,2.49,1.06c0-.1,0-.2,0-.3l-.66-.57c-.39-.34-.93-.81-1.43-1.3l-1.4-1.39L14,62.48l.61.53c.37.31.89.7,1.4,1.09,1,.79,2.05,1.48,2.05,1.48a7.22,7.22,0,0,1,.06-.92,8.9,8.9,0,0,1,.19-1c-.16-.15-.32-.3-.5-.44s-.62-.49-.94-.71-.64-.44-1-.64c-.66-.4-1.32-.74-1.92-1A8.21,8.21,0,0,0,11.61,60l0,0C11.43,60.16,12.23,63,14.11,65.17Z"/><path class="cls-1" d="M19.4,62.81a7.52,7.52,0,0,0-.55,2.53,5.09,5.09,0,0,0,.21,1.86l.38.22s.14-.46.39-1.13.62-1.57,1-2.42.8-1.7,1.11-2.31c.15-.31.3-.56.39-.74l.16-.27s-.16.36-.37.91l-.71,2c-.23.76-.44,1.54-.6,2.13-.08.3-.15.55-.18.72l-.07.28a11.46,11.46,0,0,1,1.9-3,10.9,10.9,0,0,1,1.06-1.07c.54-2.33.53-4.52.34-4.6h0a7,7,0,0,0-2,1.4,12.36,12.36,0,0,0-1.36,1.53c-.21.3-.42.61-.62.94A9.48,9.48,0,0,0,19.4,62.81Z"/><path class="cls-1" d="M12.22,53.62c.6.31,1.19.68,1.37.79A25.41,25.41,0,0,1,15.78,56h0l0-.29s-.81-1.11-1.63-2.29S12.66,51,12.66,51s.8,1.05,1.61,2c.39.5.84,1,1.15,1.32l.53.58a8.55,8.55,0,0,1,.66-1.8q-.18-.27-.39-.54a13.55,13.55,0,0,0-1.57-1.73,17,17,0,0,0-1.6-1.43A8.05,8.05,0,0,0,10.94,48h0A10.74,10.74,0,0,0,12.22,53.62Z"/><path class="cls-1" d="M17.9,52.49a7.53,7.53,0,0,0-1.1,2.34,5.29,5.29,0,0,0-.21,1.87l.32.3s1-1.66,2.14-3.17c.54-.75,1.16-1.48,1.6-2l.74-.87-.54.81c-.31.49-.77,1.16-1.15,1.85s-.8,1.4-1.07,2l-.45.91a10.87,10.87,0,0,1,2.52-2.55A14,14,0,0,1,22,53.12C23,51,23.52,48.82,23.34,48.7h0a6.79,6.79,0,0,0-2.2.94,11.3,11.3,0,0,0-1.71,1.19A9.26,9.26,0,0,0,17.9,52.49Z"/><path class="cls-1" d="M12.85,59.44c.63.25,1.25.55,1.44.64.64.33,1.49.78,2.36,1.33v-.3l-.6-.63c-.36-.39-.81-.92-1.27-1.47s-.91-1.1-1.23-1.53L13,56.76l.56.59c.34.35.77.81,1.25,1.24.94.89,1.87,1.71,1.87,1.71a9.15,9.15,0,0,1,.47-1.87c-.14-.16-.3-.33-.46-.49A16.28,16.28,0,0,0,10.93,54h0a4.75,4.75,0,0,0,.3,1.86,14.8,14.8,0,0,0,.64,1.71c.14.31.28.61.45.92A10.4,10.4,0,0,0,12.85,59.44Z"/><path class="cls-1" d="M18.35,57.69a8.87,8.87,0,0,0-.83,2.45,6.13,6.13,0,0,0,0,1.88l.34.26s.21-.43.54-1.08.75-1.49,1.25-2.3.95-1.6,1.36-2.17l.65-.94-.45.86c-.29.53-.61,1.23-.94,2l-.47,1.09c-.14.35-.27.68-.37,1l-.36,1a11,11,0,0,1,2.23-2.82,12.18,12.18,0,0,1,1.17-.94q.15-.43.27-.84c.09-.28.17-.55.23-.81.14-.53.22-1,.29-1.43a2.91,2.91,0,0,0,.06-1.46h0A10.2,10.2,0,0,0,18.35,57.69Z"/><path class="cls-1" d="M12.27,47.77a15.5,15.5,0,0,1,1.27.94,19.1,19.1,0,0,1,2,1.81h0l.07-.29s-.68-1.19-1.35-2.46l-.5-.94c-.15-.3-.26-.58-.38-.82L13,45.18l.4.7c.24.41.57,1,.95,1.49.74,1.07,1.48,2.07,1.48,2.07a9,9,0,0,1,.84-1.72c-.1-.19-.22-.38-.34-.58a17.45,17.45,0,0,0-2.81-3.49,8.33,8.33,0,0,0-2-1.58h0A4.63,4.63,0,0,0,11.45,44,11.64,11.64,0,0,0,12.27,47.77Z"/><path class="cls-1" d="M18,47.27a7.23,7.23,0,0,0-1.76,4l.28.33.2-.26c.14-.17.31-.41.55-.68.48-.56,1.12-1.28,1.76-2l.93-1c.3-.31.58-.6.85-.83l.86-.78-.65.75a20.74,20.74,0,0,0-1.32,1.71c-.47.64-.94,1.31-1.3,1.82s-.56.85-.56.85A11.25,11.25,0,0,1,20.67,49,12.22,12.22,0,0,1,22,48.34a20.3,20.3,0,0,0,1.46-2.83,3,3,0,0,0,.33-1.41h0a6.38,6.38,0,0,0-2.26.68A10.67,10.67,0,0,0,18,47.27Z"/><path class="cls-1" d="M12.22,53.62c.6.31,1.19.68,1.37.79A25.42,25.42,0,0,1,15.77,56l0-.29s-.81-1.11-1.63-2.29S12.66,51,12.66,51s.8,1.05,1.61,2c.39.5.84,1,1.15,1.32l.53.58a8.78,8.78,0,0,1,.66-1.8q-.18-.27-.39-.54a13.55,13.55,0,0,0-1.57-1.73,17,17,0,0,0-1.6-1.43A8.05,8.05,0,0,0,10.94,48h0A10.74,10.74,0,0,0,12.22,53.62Z"/><path class="cls-1" d="M17.9,52.49a7.53,7.53,0,0,0-1.1,2.34,5.29,5.29,0,0,0-.21,1.87l.32.3s1-1.66,2.14-3.17c.54-.75,1.16-1.48,1.6-2l.74-.87-.54.81c-.31.49-.77,1.16-1.15,1.85s-.8,1.4-1.07,2l-.45.91a10.87,10.87,0,0,1,2.52-2.55A14,14,0,0,1,22,53.12C23,51,23.52,48.82,23.34,48.7h0a6.79,6.79,0,0,0-2.2.94,11.3,11.3,0,0,0-1.71,1.19A9.26,9.26,0,0,0,17.9,52.49Z"/><path class="cls-1" d="M12.92,41.94c.49.44,1,.93,1.15,1.08a19.49,19.49,0,0,1,1.82,2h0l.09-.28-.36-.8c-.2-.48-.53-1.14-.74-1.8-.47-1.32-.93-2.71-.93-2.71s.55,1.2,1.12,2.33c.28.56.56,1.12.81,1.53s.41.69.41.69a6.45,6.45,0,0,1,1-1.62,6,6,0,0,0-.25-.61,13.51,13.51,0,0,0-1.14-2C15.5,39.1,15,38.5,14.63,38a7.92,7.92,0,0,0-1.73-1.78h0a4.75,4.75,0,0,0-.35,1.85A16.38,16.38,0,0,0,12.92,41.94Z"/><path class="cls-1" d="M18.72,42.1a10,10,0,0,0-1,1,8.92,8.92,0,0,0-.63,1,6.11,6.11,0,0,0-.61,1.77l.24.36s1.39-1.39,2.77-2.62c.71-.61,1.48-1.18,2-1.6l.92-.68s-1.13,1.05-2.27,2.22S18.12,46,18.12,46a11.82,11.82,0,0,1,3-1.93,10.17,10.17,0,0,1,1.42-.51A12.16,12.16,0,0,0,24.28,41c.42-.74.63-1.28.56-1.35l0,0a7.29,7.29,0,0,0-2.37.42,9.91,9.91,0,0,0-3.72,2.1Z"/><path class="cls-1" d="M12.27,47.77a15.5,15.5,0,0,1,1.27.94,19.1,19.1,0,0,1,2,1.81l.07-.29s-.68-1.19-1.35-2.46l-.5-.94c-.15-.3-.26-.58-.38-.83L13,45.18l.4.7c.24.41.57,1,.95,1.49.74,1.07,1.48,2.07,1.48,2.07a9.06,9.06,0,0,1,.84-1.72c-.1-.19-.22-.38-.34-.58a17.45,17.45,0,0,0-2.81-3.49,8.33,8.33,0,0,0-2-1.58h0A4.63,4.63,0,0,0,11.45,44,11.64,11.64,0,0,0,12.27,47.77Z"/><path class="cls-1" d="M18,47.27a7.23,7.23,0,0,0-1.76,4l.28.33.2-.26c.14-.17.31-.41.55-.68.48-.56,1.12-1.28,1.76-2l.93-1c.3-.31.58-.6.85-.83l.86-.78-.65.75a20.74,20.74,0,0,0-1.32,1.71c-.47.64-.94,1.31-1.3,1.82s-.56.85-.56.85A11.25,11.25,0,0,1,20.67,49,12.22,12.22,0,0,1,22,48.34a20.3,20.3,0,0,0,1.46-2.83,3,3,0,0,0,.33-1.41h0a6.38,6.38,0,0,0-2.26.68A10.67,10.67,0,0,0,18,47.27Z"/><path class="cls-1" d="M14.26,36.24c.46.49.89,1,1,1.2.46.57,1,1.32,1.54,2.2h0l.11-.27a8,8,0,0,1-.26-.83c-.14-.51-.32-1.18-.5-1.86s-.35-1.4-.48-1.93c-.07-.26-.1-.48-.13-.64l0-.24s.08.31.24.77.39,1.08.62,1.68c.47,1.2.95,2.33.95,2.33a10,10,0,0,1,1.24-1.48l-.2-.64a23.16,23.16,0,0,0-.92-2.15A18.25,18.25,0,0,0,16.4,32.5a8,8,0,0,0-1.55-2h0a4.84,4.84,0,0,0-.52,1.82,15,15,0,0,0-.19,1.81A15.17,15.17,0,0,0,14.26,36.24Z"/><path class="cls-1" d="M20,37a9,9,0,0,0-1.82,1.85,3.94,3.94,0,0,0-.51.9,5.12,5.12,0,0,0-.28.8l.21.38.93-.75c.29-.22.59-.48,1-.74l1.17-.79c.78-.53,1.56-1,2.14-1.38.29-.18.53-.33.71-.42l.29-.15-.23.15c-.15.1-.34.25-.56.43-.45.36-1.06.86-1.67,1.38s-1.26,1.05-1.66,1.48l-.72.72a10.23,10.23,0,0,1,1.67-1,12.74,12.74,0,0,1,3-.93,11.79,11.79,0,0,0,1.13-1.28c.34-.42.67-.8.91-1.15.49-.7.72-1.22.66-1.3l0,0a7,7,0,0,0-2.37.16,13.11,13.11,0,0,0-2,.58A7.36,7.36,0,0,0,20,37Z"/><path class="cls-1" d="M12.92,41.94c.49.44,1,.93,1.15,1.08a21.68,21.68,0,0,1,1.82,2l.09-.28L15.62,44c-.2-.49-.53-1.14-.74-1.8-.47-1.32-.93-2.71-.93-2.71s.55,1.2,1.12,2.33c.28.56.56,1.12.81,1.53l.41.69a6.75,6.75,0,0,1,1-1.62c-.07-.19-.15-.4-.25-.61a13.51,13.51,0,0,0-1.14-2C15.5,39.1,15,38.5,14.63,38a7.92,7.92,0,0,0-1.73-1.78h0a4.75,4.75,0,0,0-.35,1.85A16.38,16.38,0,0,0,12.92,41.94Z"/><path class="cls-1" d="M18.72,42.1a10,10,0,0,0-1,1,8.92,8.92,0,0,0-.63,1,6.11,6.11,0,0,0-.61,1.77l.24.36s1.39-1.39,2.77-2.62c.71-.61,1.48-1.18,2-1.6l.92-.68s-1.13,1.05-2.27,2.22S18.12,46,18.12,46a11.82,11.82,0,0,1,3-1.93,10.17,10.17,0,0,1,1.42-.51A12.16,12.16,0,0,0,24.28,41c.42-.74.63-1.28.56-1.35l0,0a7.29,7.29,0,0,0-2.37.42,9.91,9.91,0,0,0-3.72,2.1Z"/><path class="cls-1" d="M16.18,30.7c.42.55.79,1.13.91,1.31a21.51,21.51,0,0,1,1.29,2.37h0l.16-.25s-.27-1.35-.5-2.78c-.11-.7-.16-1.4-.21-1.94s-.08-.9-.08-.9.26,1.28.54,2.51c.16.61.36,1.24.49,1.69l.24.75a9.4,9.4,0,0,1,1.34-1.35c0-.21-.06-.43-.1-.65a16.8,16.8,0,0,0-1.53-4.23,8.06,8.06,0,0,0-1.3-2.13h0c-.06,0-.17.18-.31.48a6.34,6.34,0,0,0-.42,1.26A14.39,14.39,0,0,0,16.18,30.7Z"/><path class="cls-1" d="M21.79,32.13a6.25,6.25,0,0,0-1.13.79,7.63,7.63,0,0,0-.85.86,6.1,6.1,0,0,0-1,1.58,4.3,4.3,0,0,0,.16.41l.27-.18.77-.46c.62-.37,1.46-.84,2.27-1.29.42-.22.81-.44,1.21-.62l1.1-.5,1.06-.45-.85.49a20.79,20.79,0,0,0-1.84,1.17c-1.29.9-2.63,1.92-2.63,1.92a11.73,11.73,0,0,1,3.4-1.2,12,12,0,0,1,1.48-.2,14.13,14.13,0,0,0,2.31-2.18l.63-.81c.15-.21.22-.35.19-.39s0,0,0,0a7.18,7.18,0,0,0-2.41-.12A10.63,10.63,0,0,0,21.79,32.13Z"/><path class="cls-1" d="M14.26,36.24c.46.49.89,1,1,1.2.46.57,1,1.32,1.54,2.2l.12-.27s-.13-.34-.26-.83-.32-1.19-.5-1.86-.35-1.4-.48-1.93c-.07-.26-.1-.48-.13-.64l0-.24s.08.31.24.77.39,1.08.62,1.68c.47,1.2.95,2.33.95,2.33a9.22,9.22,0,0,1,1.24-1.47c-.06-.21-.13-.43-.2-.65a23.16,23.16,0,0,0-.92-2.15A18.25,18.25,0,0,0,16.4,32.5a8,8,0,0,0-1.55-2h0a4.84,4.84,0,0,0-.52,1.82,15,15,0,0,0-.19,1.81A15.17,15.17,0,0,0,14.26,36.24Z"/><path class="cls-1" d="M20,37a9,9,0,0,0-1.82,1.85,3.94,3.94,0,0,0-.51.9,5.12,5.12,0,0,0-.28.8l.21.38.93-.75c.29-.22.59-.48,1-.74l1.17-.79c.78-.53,1.56-1,2.14-1.38.29-.18.53-.33.71-.42l.29-.15-.23.15c-.15.1-.34.25-.56.43-.45.36-1.06.86-1.67,1.38s-1.26,1.05-1.66,1.48l-.72.72a10.23,10.23,0,0,1,1.67-1,12.74,12.74,0,0,1,3-.93,11.79,11.79,0,0,0,1.13-1.28c.34-.42.67-.8.91-1.15.49-.7.72-1.22.66-1.3l0,0a7,7,0,0,0-2.37.16,13.11,13.11,0,0,0-2,.58A7.36,7.36,0,0,0,20,37Z"/><path class="cls-1" d="M18.75,25.43c.34.59.64,1.2.72,1.39.29.65.71,1.54,1.05,2.51h0l.17-.24s0-.35-.09-.87-.05-1.22-.07-1.93c0-1.41,0-2.89,0-2.89s.14,1.33.32,2.59c.09.62.18,1.25.25,1.71l.09.56,0,.21a7.81,7.81,0,0,1,1.54-1.16c0-.22,0-.44,0-.67a16.48,16.48,0,0,0-.43-2.31c-.18-.73-.39-1.44-.61-2.06A7.75,7.75,0,0,0,20.61,20l0,0A10.68,10.68,0,0,0,18.75,25.43Z"/><path class="cls-1" d="M24.17,27.48A8.4,8.4,0,0,0,22,28.87a6.43,6.43,0,0,0-1.14,1.49c0,.14.08.28.11.42L22,30.26c.66-.3,1.48-.71,2.4-1,1.79-.68,3.49-1.21,3.49-1.21s-1.38.64-2.83,1.37c-.35.19-.73.36-1.05.56l-.88.53-.87.53a12.09,12.09,0,0,1,1.86-.6c.3-.06.58-.12.85-.16l.77-.07a13.79,13.79,0,0,1,1.52,0c2-1.28,3.56-2.83,3.48-3l0,0a6.77,6.77,0,0,0-2.36-.38,12.68,12.68,0,0,0-2.08.11A9.11,9.11,0,0,0,24.17,27.48Z"/><path class="cls-1" d="M16.18,30.7c.42.55.79,1.13.91,1.31a21.51,21.51,0,0,1,1.29,2.37l.15-.25s-.26-1.35-.49-2.78c-.11-.71-.16-1.4-.21-1.94s-.08-.9-.08-.9.26,1.28.54,2.51c.16.61.36,1.24.49,1.69l.24.75a9.47,9.47,0,0,1,1.34-1.35c0-.21-.06-.43-.1-.65a16.8,16.8,0,0,0-1.53-4.23,8.06,8.06,0,0,0-1.3-2.13h0c-.06,0-.17.18-.31.48a6.34,6.34,0,0,0-.42,1.26A14.39,14.39,0,0,0,16.18,30.7Z"/><path class="cls-1" d="M21.79,32.13a6.25,6.25,0,0,0-1.13.79,7.63,7.63,0,0,0-.85.86,6.1,6.1,0,0,0-1,1.58,4.3,4.3,0,0,0,.16.41l.27-.18.77-.46c.62-.37,1.46-.84,2.27-1.29.42-.22.81-.44,1.21-.62l1.1-.5,1.06-.45-.85.49a20.79,20.79,0,0,0-1.84,1.17c-1.29.9-2.63,1.92-2.63,1.92a11.73,11.73,0,0,1,3.4-1.2,12,12,0,0,1,1.48-.2,14.13,14.13,0,0,0,2.31-2.18l.63-.81c.15-.21.22-.35.19-.39s0,0,0,0a7.18,7.18,0,0,0-2.41-.12A10.63,10.63,0,0,0,21.79,32.13Z"/><path class="cls-1" d="M21.87,20.47c.29.63.52,1.28.59,1.48a20.16,20.16,0,0,1,.72,2.59h0l.21-.21s.05-1.37.15-2.81c0-.72.13-1.42.21-1.95s.13-.89.13-.89l0,.81c0,.49,0,1.1,0,1.76.06,1.3.15,2.54.15,2.54a9.59,9.59,0,0,1,1.63-1c0-.22,0-.45,0-.68a17.08,17.08,0,0,0-.53-4.45,8.16,8.16,0,0,0-.82-2.37h0c-.05,0-.2.14-.4.39a11.72,11.72,0,0,0-.68,1.15,17.55,17.55,0,0,0-.76,1.66c-.12.31-.23.63-.34,1S21.94,20.12,21.87,20.47Z"/><path class="cls-1" d="M27,23.1a8.6,8.6,0,0,0-2.29,1.17,5.09,5.09,0,0,0-1.34,1.32l.07.44.31-.12c.2-.07.46-.18.82-.29.7-.21,1.62-.49,2.52-.73s1.78-.48,2.49-.6l1.13-.2-.94.29c-.28.09-.62.18-1,.32l-1.08.42c-.73.3-1.48.61-2,.86a9.43,9.43,0,0,0-.93.42A11.31,11.31,0,0,1,28.34,26a12.15,12.15,0,0,1,1.49.14c.27-.13.52-.27.77-.41l.75-.4a14.06,14.06,0,0,0,1.21-.81,6.8,6.8,0,0,0,.78-.67c.19-.17.29-.29.28-.33s0,0,0,0a6.2,6.2,0,0,0-2.3-.64A10.77,10.77,0,0,0,27,23.1Z"/><path class="cls-1" d="M18.75,25.43c.34.59.64,1.2.72,1.39.29.65.71,1.54,1,2.51l.18-.24-.09-.88c-.05-.53-.05-1.21-.07-1.92,0-1.41,0-2.89,0-2.89s.14,1.33.32,2.59c.09.62.18,1.25.25,1.71l.09.56,0,.21a8.61,8.61,0,0,1,1.54-1.16c0-.22,0-.44,0-.67a16.48,16.48,0,0,0-.43-2.31c-.18-.73-.39-1.44-.61-2.06A7.75,7.75,0,0,0,20.61,20l0,0A10.68,10.68,0,0,0,18.75,25.43Z"/><path class="cls-1" d="M24.17,27.48A8.4,8.4,0,0,0,22,28.87a6.43,6.43,0,0,0-1.14,1.49l.11.42L22,30.26c.66-.3,1.48-.71,2.4-1,1.79-.68,3.49-1.21,3.49-1.21s-1.38.64-2.83,1.37c-.35.19-.73.36-1.05.56l-.88.53-.87.53a12.09,12.09,0,0,1,1.86-.6c.3-.06.58-.12.85-.16l.77-.07a13.79,13.79,0,0,1,1.52,0c2-1.28,3.56-2.83,3.48-3l0,0a6.77,6.77,0,0,0-2.36-.38,12.68,12.68,0,0,0-2.08.11A9.11,9.11,0,0,0,24.17,27.48Z"/><path class="cls-1" d="M25.53,15.9c.2.64.35,1.3.39,1.51a22.15,22.15,0,0,1,.48,2.69h0l.22-.18s0-.35.11-.88c0-.26.08-.57.14-.89s.13-.67.2-1c.29-1.38.64-2.81.64-2.81s-.17,1.32-.28,2.58c-.05.63-.1,1.25-.14,1.72v.8a6.35,6.35,0,0,1,1.75-.8c0-.21.07-.43.1-.66a13.17,13.17,0,0,0,.1-2.35c0-.78-.07-1.49-.15-2.15A7.87,7.87,0,0,0,28.54,11l0,0a4.9,4.9,0,0,0-1.27,1.4A9.55,9.55,0,0,0,26.32,14,15.74,15.74,0,0,0,25.53,15.9Z"/><path class="cls-1" d="M30.36,19.1a6.63,6.63,0,0,0-3.89,2.06v.44l1.19-.27c.71-.14,1.62-.35,2.55-.48,1.91-.26,3.69-.39,3.69-.39s-1.49.31-3.07.7c-.41.09-.78.21-1.14.32l-1,.32-1,.32a12,12,0,0,1,3.57-.05c.2,0,.86.15,1.49.33a10.67,10.67,0,0,0,1.6-.64c.48-.23.89-.49,1.28-.67.76-.41,1.21-.77,1.19-.86s0,0,0,0a7,7,0,0,0-2.22-.89,10.7,10.7,0,0,0-2-.34A9.39,9.39,0,0,0,30.36,19.1Z"/><path class="cls-1" d="M21.87,20.47c.29.63.52,1.28.59,1.48a20.16,20.16,0,0,1,.72,2.59l.21-.21s.05-1.38.15-2.81c0-.72.13-1.42.21-1.95l.13-.89,0,.81c0,.49,0,1.1,0,1.76.06,1.3.15,2.54.15,2.54a9.59,9.59,0,0,1,1.63-1c0-.22,0-.45,0-.68a17.08,17.08,0,0,0-.53-4.45,8.16,8.16,0,0,0-.82-2.37h0c-.05,0-.2.14-.4.39a11.72,11.72,0,0,0-.68,1.15,17.55,17.55,0,0,0-.76,1.66c-.12.31-.23.63-.34,1S21.94,20.12,21.87,20.47Z"/><path class="cls-1" d="M27,23.1a8.6,8.6,0,0,0-2.29,1.17,5.09,5.09,0,0,0-1.34,1.32l.07.44.31-.12c.2-.07.46-.18.82-.29.7-.21,1.62-.49,2.52-.73s1.78-.48,2.49-.6l1.13-.2-.94.29c-.28.09-.62.18-1,.32l-1.08.42c-.73.3-1.48.61-2,.86a9.43,9.43,0,0,0-.93.42A11.31,11.31,0,0,1,28.34,26a12.15,12.15,0,0,1,1.49.14c.27-.13.52-.27.77-.41l.75-.4a14.06,14.06,0,0,0,1.21-.81,6.8,6.8,0,0,0,.78-.67c.19-.17.29-.29.28-.33s0,0,0,0a6.2,6.2,0,0,0-2.3-.64A10.77,10.77,0,0,0,27,23.1Z"/><path class="cls-1" d="M29.68,11.76c.13.67.21,1.35.24,1.56A21.33,21.33,0,0,1,30,16h0l.25-.16s.36-1.32.78-2.69c.21-.68.42-1.38.62-1.87l.33-.83-.2.78c-.06.23-.13.5-.2.79s-.12.62-.18.94c-.23,1.27-.42,2.5-.42,2.5a9.18,9.18,0,0,1,1.82-.62c.06-.21.12-.43.17-.65a17.62,17.62,0,0,0,.46-4.46,8.62,8.62,0,0,0-.28-2.51l0,0c-.11,0-.68.46-1.39,1.28A12.11,12.11,0,0,0,29.68,11.76Z"/><path class="cls-1" d="M34.11,15.46a8.62,8.62,0,0,0-2.51.62,8.93,8.93,0,0,0-.93.47,4.65,4.65,0,0,0-.65.54l0,.44,1.18-.16c.72-.07,1.7-.12,2.63-.16s1.84-.06,2.55,0l1.16.06-1,.07c-.6,0-1.35.17-2.15.29s-1.59.25-2.2.36c-.31.06-.54.13-.72.17l-.27.06,1,0c.34,0,.66.05,1,.09a12.71,12.71,0,0,1,1.61.32,12.94,12.94,0,0,1,1.43.47,20.67,20.67,0,0,0,3-1,3.07,3.07,0,0,0,1.24-.76l0,0a6.18,6.18,0,0,0-2.09-1.11A10.12,10.12,0,0,0,34.11,15.46Z"/><path class="cls-1" d="M25.53,15.9c.2.64.35,1.3.39,1.51a22.49,22.49,0,0,1,.47,2.68l.23-.19.11-.87c0-.26.08-.57.14-.9l.2-1c.29-1.38.64-2.81.64-2.81s-.17,1.32-.28,2.58c-.05.63-.1,1.25-.14,1.72s0,.8,0,.8a6.42,6.42,0,0,1,1.75-.8c0-.21.07-.43.1-.66a13.17,13.17,0,0,0,.1-2.35c0-.78-.07-1.49-.15-2.15A7.87,7.87,0,0,0,28.54,11l0,0a4.9,4.9,0,0,0-1.27,1.4A9.55,9.55,0,0,0,26.32,14,15.74,15.74,0,0,0,25.53,15.9Z"/><path class="cls-1" d="M30.36,19.1a6.63,6.63,0,0,0-3.89,2.06v.44l1.19-.27c.71-.14,1.62-.35,2.55-.48,1.91-.26,3.69-.39,3.69-.39s-1.49.31-3.07.7c-.41.09-.78.21-1.14.32l-1,.32-1,.32a12,12,0,0,1,3.57-.05c.2,0,.86.15,1.49.33a10.67,10.67,0,0,0,1.6-.64c.48-.23.89-.49,1.28-.67.76-.41,1.21-.77,1.19-.86s0,0,0,0a7,7,0,0,0-2.22-.89,10.7,10.7,0,0,0-2-.34A9.39,9.39,0,0,0,30.36,19.1Z"/><path class="cls-1" d="M41.58,9.24a.83.83,0,0,1,.1.44L42.87,9c.72-.4,1.73-.82,2.71-1.29s2-.82,2.78-1.12l1.28-.47a.45.45,0,0,0,.26-.55.4.4,0,0,0-.53-.26l-1.31.48c-.77.3-1.83.64-2.83,1.14s-2,.9-2.75,1.31l-1.22.68A.78.78,0,0,1,41.58,9.24Z"/><path class="cls-1" d="M38.35,8.81l.26-.05.08,0,.22-.13.82-.46,2.48-1.39,2.58-1.2.86-.39L46,5a.41.41,0,0,0,.25-.55.45.45,0,0,0-.58-.24,4.46,4.46,0,0,0-.43.17l-1.13.52-1.59.74c-.29.14-.59.26-.89.42l-.89.5c-1.18.68-2.4,1.3-3.23,1.91l-1.42.95A14.16,14.16,0,0,1,38.35,8.81Z"/><path class="cls-1" d="M34.28,8.87l1.18-.79,1.22-.82c.45-.29.92-.62,1.42-.89l2.74-1.54c.37-.22.71-.34.93-.46l.36-.16a.44.44,0,0,0,.23-.58.45.45,0,0,0-.6-.2l-.35.16c-.21.11-.53.24-.89.44L37.9,5.5l-.71.4-.67.43-1.16.78-1.14.76C34.26,8.21,34.27,8.57,34.28,8.87Z"/><path class="cls-1" d="M40.47,12.19A13.07,13.07,0,0,1,39.19,14l1.27-.84c.73-.55,1.83-1.09,2.88-1.7l.79-.45c.26-.15.54-.25.8-.38l1.41-.65,1-.47a3.43,3.43,0,0,1,.39-.15A.41.41,0,0,0,48,8.77a.44.44,0,0,0-.54-.26l-.31.12L46.31,9,43.93,10.1l-2.29,1.28-.76.42-.21.13L40.6,12Z"/><path class="cls-1" d="M40.09,16.15l.92-.62L42,14.9c.17-.11.34-.24.53-.35s.38-.22.58-.32L45.17,13c.29-.17.55-.26.73-.35l.27-.13a.39.39,0,0,0,.16-.54.41.41,0,0,0-.53-.23l-.3.14a6.61,6.61,0,0,0-.78.38l-2.3,1.29a12.45,12.45,0,0,0-1.18.74l-1,.69-1,.66C39.49,15.82,39.8,16,40.09,16.15Z"/><path class="cls-1" d="M34.26,11.32a15.55,15.55,0,0,1-.4,2.77L36,12.64c.27-.18.53-.37.79-.52l.72-.41.7-.4-.64.49-.64.51c-.24.18-.47.41-.71.62l-1.89,1.72a11,11,0,0,1,2.73.3,10,10,0,0,0,.82-.77c.25-.27.52-.53.75-.81a13.5,13.5,0,0,0,1.23-1.68c.17-.27.31-.54.45-.77s.26-.44.35-.62c.18-.36.27-.6.23-.67s-.29-.11-.71-.13c-.21,0-.46,0-.74,0s-.58.07-.9.12a12.5,12.5,0,0,0-2.13.56,8.39,8.39,0,0,0-1.12.48A9.42,9.42,0,0,0,34.26,11.32Z"/><path class="cls-1" d="M29.68,11.76c.13.67.21,1.35.24,1.56A21.33,21.33,0,0,1,30,16h0l.25-.16s.36-1.32.78-2.69c.21-.68.42-1.38.62-1.87l.33-.83-.2.78c-.06.23-.13.5-.2.79s-.12.62-.18.94c-.23,1.27-.42,2.5-.42,2.5a9.18,9.18,0,0,1,1.82-.62c.06-.21.12-.43.17-.65a17.62,17.62,0,0,0,.46-4.46,8.62,8.62,0,0,0-.28-2.51l0,0c-.11,0-.68.46-1.39,1.28A12.11,12.11,0,0,0,29.68,11.76Z"/><path class="cls-1" d="M34.11,15.46a8.62,8.62,0,0,0-2.51.62,8.93,8.93,0,0,0-.93.47,4.65,4.65,0,0,0-.65.54l0,.44,1.18-.16c.72-.07,1.7-.12,2.63-.16s1.84-.06,2.55,0l1.16.06-1,.07c-.6,0-1.35.17-2.15.29s-1.59.25-2.2.36c-.31.06-.54.13-.72.17l-.27.06,1,0c.34,0,.66.05,1,.09a12.71,12.71,0,0,1,1.61.32,12.94,12.94,0,0,1,1.43.47,20.67,20.67,0,0,0,3-1,3.07,3.07,0,0,0,1.24-.76l0,0a6.18,6.18,0,0,0-2.09-1.11A10.12,10.12,0,0,0,34.11,15.46Z"/><path class="cls-1" d="M79.56,91.74l0,0,0,0h1.35c0-.06,0-.13,0-.19a7.05,7.05,0,0,0,.13-2.39s0,0,0,0-1.92,1-3.57,2.62Z"/><path class="cls-1" d="M76.66,91.74a3.76,3.76,0,0,0,.08-1l0,0a4.65,4.65,0,0,0-1.83.81l-.42.26Z"/><path class="cls-1" d="M82.9,91.74c.29-.44.55-.89.75-1.23l.4-.68s-.38.91-.84,1.91H85a1.21,1.21,0,0,0,.05-.18,11.42,11.42,0,0,0,.34-2,6.88,6.88,0,0,0-.13-2.38s0,0,0,0-.58.26-1.21.83c-.31.29-.67.62-1,1a15,15,0,0,0-1.12,1.31,11.2,11.2,0,0,1-.18,1.48Z"/><path class="cls-1" d="M79.56,91.74l0,0,0,0h1.35c0-.06,0-.13,0-.19a7.05,7.05,0,0,0,.13-2.39s0,0,0,0-1.92,1-3.57,2.62Z"/><path class="cls-1" d="M85.79,91.74h.36l.2-.34c.23-.44.56-1,.84-1.59s.55-1.17.75-1.61.32-.73.32-.73l-.2.71c-.13.41-.31,1-.51,1.54s-.39,1.14-.56,1.55l-.2.47H88.6a4.59,4.59,0,0,0,.24-.5A9.85,9.85,0,0,0,89.55,87a6.57,6.57,0,0,0-.4-2.36s0,0,0,0c-.19-.07-1.75,1.47-3,3.51a12,12,0,0,1,0,1.51A11.83,11.83,0,0,1,85.79,91.74Z"/><path class="cls-1" d="M82.9,91.74c.29-.44.55-.89.75-1.23l.4-.68s-.38.91-.84,1.91H85a1.21,1.21,0,0,0,.05-.18,11.42,11.42,0,0,0,.34-2,6.88,6.88,0,0,0-.13-2.38s0,0,0,0-.58.26-1.21.83c-.31.29-.67.62-1,1a15,15,0,0,0-1.12,1.31,11.2,11.2,0,0,1-.18,1.48Z"/><path class="cls-1" d="M90.14,85.56a11.9,11.9,0,0,1,.17,1.5,11,11,0,0,1-.17,2.58h0l.26-.1.33-.76c.19-.45.42-1.08.65-1.68s.43-1.22.57-1.68l.23-.77-.12.72c-.09.43-.18,1-.32,1.6s-.28,1.16-.4,1.6-.2.74-.2.74A10.65,10.65,0,0,1,93,89a5.65,5.65,0,0,0,.22-.62,10,10,0,0,0,.23-4.28,6.78,6.78,0,0,0-.65-2.29l0,0c-.1,0-.5.37-1,1.07-.24.35-.53.75-.8,1.21-.14.24-.28.48-.41.74S90.27,85.29,90.14,85.56Z"/><path class="cls-1" d="M93.64,91.43c1,0,2,.08,2.75,0l1.26,0-1.09.16c-.32,0-.71.09-1.12.13h4.71c.57-.36.91-.65.91-.73l0,0a16.57,16.57,0,0,0-6.84-1.29,10.39,10.39,0,0,0-2.58.33,5.79,5.79,0,0,0-1.72.65c0,.13-.08.27-.13.41l1.19.14C91.68,91.29,92.66,91.4,93.64,91.43Z"/><path class="cls-1" d="M85.79,91.74h.36l.2-.34c.23-.44.56-1,.84-1.59s.55-1.17.75-1.61.32-.73.32-.73l-.2.71c-.13.41-.31,1-.51,1.54s-.39,1.14-.56,1.55l-.2.47H88.6a4.59,4.59,0,0,0,.24-.5A9.85,9.85,0,0,0,89.55,87a6.57,6.57,0,0,0-.4-2.36s0,0,0,0c-.19-.07-1.75,1.47-3,3.51a12,12,0,0,1,0,1.51A11.83,11.83,0,0,1,85.79,91.74Z"/><path class="cls-1" d="M93.85,82.55A13.78,13.78,0,0,1,94.18,84a12.11,12.11,0,0,1,.12,2.59h0l.25-.13.23-.8c.13-.48.32-1.1.47-1.74s.28-1.26.38-1.73.15-.79.15-.79v.21c0,.13,0,.31,0,.53,0,.43-.08,1-.15,1.61s-.14,1.19-.21,1.64l-.12.75A12.47,12.47,0,0,1,97,85.61c0-.2.1-.42.14-.64A10,10,0,0,0,96,78.48h0A10.78,10.78,0,0,0,93.85,82.55Z"/><path class="cls-1" d="M98.33,86.19a12.82,12.82,0,0,0-2.53.62,7.88,7.88,0,0,0-1.63.83l-.09.42,1.21,0C96,88.09,97,88,98,88s2-.18,2.73-.26,1.26-.16,1.26-.16-.42.12-1.07.27-1.49.36-2.34.52-1.7.29-2.32.38l-1.06.13a23.31,23.31,0,0,1,3.71.49c.2,0,.88.21,1.53.41,2.72-.86,4.93-2.81,4.87-3,0,0,0,0,0,0A16.67,16.67,0,0,0,98.33,86.19Z"/><path class="cls-1" d="M90.14,85.56a11.9,11.9,0,0,1,.17,1.5,11,11,0,0,1-.17,2.58l.26-.1.33-.76c.19-.45.42-1.08.65-1.68s.43-1.22.57-1.69.23-.76.23-.76l-.12.72c-.09.43-.18,1-.32,1.6s-.28,1.16-.4,1.6-.19.74-.19.74A10.14,10.14,0,0,1,93,89a5.65,5.65,0,0,0,.22-.62,10,10,0,0,0,.23-4.28,6.78,6.78,0,0,0-.65-2.29l0,0c-.1,0-.5.37-1,1.07-.24.35-.53.75-.8,1.21-.14.24-.28.48-.41.74S90.27,85.29,90.14,85.56Z"/><path class="cls-1" d="M93.64,91.43c1,0,2,.08,2.75,0l1.26,0-1.09.16c-.32,0-.71.09-1.12.13h4.71c.57-.36.91-.65.91-.73l0,0a16.57,16.57,0,0,0-6.84-1.29,10.39,10.39,0,0,0-2.58.33,5.79,5.79,0,0,0-1.72.65c0,.13-.08.27-.13.41l1.19.14C91.68,91.29,92.66,91.4,93.64,91.43Z"/><path class="cls-1" d="M97.2,79.14c.25.6.43,1.24.49,1.43a11.37,11.37,0,0,1,.4,2.56h0l.23-.16s.27-1.3.42-2.6c.09-.64.16-1.28.19-1.76s.06-.8.06-.8l0,.73c0,.44,0,1,0,1.63s0,1.2,0,1.65,0,.76,0,.76a11.76,11.76,0,0,1,1.7-.74c0-.21.06-.43.08-.65a10.11,10.11,0,0,0-1.86-6.32l0,0c-.1,0-.41.48-.73,1.27A16.34,16.34,0,0,0,97.2,79.14Z"/><path class="cls-1" d="M102.06,82.27a11.62,11.62,0,0,0-2.45.9,6,6,0,0,0-1.52,1c0,.14,0,.28,0,.43,0,0,.49,0,1.2-.13s1.7-.19,2.66-.38,2-.36,2.69-.55l1.23-.31s-1.64.66-3.3,1.16c-.81.27-1.65.48-2.27.64l-1,.26a21.16,21.16,0,0,1,3.73.07c.21,0,.89.1,1.56.22a13.26,13.26,0,0,0,3.28-2.11A4.93,4.93,0,0,0,109,82.06s0,0,0,0A16.66,16.66,0,0,0,102.06,82.27Z"/><path class="cls-1" d="M93.85,82.55A13.78,13.78,0,0,1,94.18,84a12.11,12.11,0,0,1,.12,2.59l.25-.13.23-.8c.13-.48.32-1.1.47-1.74s.28-1.26.38-1.73.15-.79.15-.79v.21c0,.13,0,.31,0,.53,0,.43-.08,1-.15,1.61s-.14,1.19-.21,1.64-.12.75-.12.75A13.59,13.59,0,0,1,97,85.61c0-.2.1-.42.14-.64A10,10,0,0,0,96,78.48h0A10.78,10.78,0,0,0,93.85,82.55Z"/><path class="cls-1" d="M98.33,86.19a12.82,12.82,0,0,0-2.53.62,7.88,7.88,0,0,0-1.63.83l-.09.42,1.21,0C96,88.09,97,88,98,88s2-.18,2.73-.26,1.26-.16,1.26-.16-.42.12-1.07.27-1.49.36-2.34.52-1.7.29-2.32.38l-1.06.13a23.31,23.31,0,0,1,3.71.49c.2,0,.88.21,1.53.41,2.72-.86,4.93-2.81,4.87-3,0,0,0,0,0,0A16.67,16.67,0,0,0,98.33,86.19Z"/><path class="cls-1" d="M100.15,75.4a10.51,10.51,0,0,1,.64,1.35,11.69,11.69,0,0,1,.69,2.5h0l.22-.17,0-.83c0-.5.06-1.16.07-1.8s0-1.3,0-1.78,0-.8,0-.8.06.29.12.72.14,1,.21,1.62.12,1.18.15,1.64l0,.75a11.14,11.14,0,0,1,1.63-.92c0-.21,0-.43,0-.66a9.89,9.89,0,0,0-1.18-4.11,6.58,6.58,0,0,0-1.37-2h0s-.14.13-.23.37a6.61,6.61,0,0,0-.36,1A17.22,17.22,0,0,0,100.15,75.4Z"/><path class="cls-1" d="M105.32,78a9.73,9.73,0,0,0-3.74,2.33c0,.14,0,.29,0,.43l1.18-.25c.72-.15,1.64-.4,2.6-.67s1.89-.6,2.61-.85l.87-.31.33-.13-.27.14-.72.36c-.6.29-1.36.68-2.17,1s-1.58.67-2.18.89l-1,.35a24.06,24.06,0,0,1,3.72-.33c.22,0,.91,0,1.59.06,2.45-1.45,4.2-3.83,4.09-4l0,0a7.84,7.84,0,0,0-2.5,0A18.78,18.78,0,0,0,105.32,78Z"/><path class="cls-1" d="M97.2,79.14c.25.6.43,1.24.49,1.43a11.37,11.37,0,0,1,.4,2.56l.23-.16s.27-1.3.42-2.6c.09-.64.16-1.28.19-1.76s.06-.8.06-.8l0,.73c0,.44,0,1,0,1.63s0,1.19,0,1.65,0,.76,0,.76a11.72,11.72,0,0,1,1.7-.74c0-.21.06-.43.08-.65a10.11,10.11,0,0,0-1.86-6.32l0,0c-.1,0-.41.48-.73,1.27A16.34,16.34,0,0,0,97.2,79.14Z"/><path class="cls-1" d="M102.06,82.27a11.62,11.62,0,0,0-2.45.9,6,6,0,0,0-1.52,1c0,.14,0,.28,0,.43,0,0,.49,0,1.2-.13s1.7-.19,2.66-.38,2-.36,2.69-.55l1.23-.31s-1.64.66-3.3,1.16c-.81.27-1.65.48-2.27.64l-1,.26a21.16,21.16,0,0,1,3.73.07c.21,0,.89.1,1.56.22a13.26,13.26,0,0,0,3.28-2.11A4.93,4.93,0,0,0,109,82.06s0,0,0,0A16.66,16.66,0,0,0,102.06,82.27Z"/><path class="cls-1" d="M102.66,71.34a12.66,12.66,0,0,1,.8,1.28,12.18,12.18,0,0,1,1,2.4h0l.18-.2,0-.83c0-.48-.07-1.15-.13-1.8-.11-1.29-.33-2.55-.33-2.55l.2.71c.13.43.26,1,.39,1.57s.26,1.18.35,1.62.12.75.12.75a13.35,13.35,0,0,1,1.5-1.1c0-.22,0-.43-.06-.65a8.43,8.43,0,0,0-.65-2.16,9.89,9.89,0,0,0-1-1.8,6.93,6.93,0,0,0-1.58-1.79h0c-.1,0-.28.56-.42,1.4A16.54,16.54,0,0,0,102.66,71.34Z"/><path class="cls-1" d="M108.09,73.31a9.39,9.39,0,0,0-3.45,2.74c0,.14,0,.28,0,.42l.32-.1c.2-.06.49-.15.82-.28.68-.24,1.61-.57,2.52-1s1.82-.8,2.5-1.13l1.12-.58-.91.62c-.55.36-1.31.81-2,1.25s-1.51.83-2.07,1.12l-.67.35-.27.13a20.18,20.18,0,0,1,3.66-.75c.21,0,.89-.11,1.57-.13A13.44,13.44,0,0,0,114,73.22a4.7,4.7,0,0,0,.89-1.66s0,0,0,0a7.38,7.38,0,0,0-2.48.31c-.63.15-1.37.33-2.1.57A18.06,18.06,0,0,0,108.09,73.31Z"/><path class="cls-1" d="M100.15,75.4a10.51,10.51,0,0,1,.64,1.35,11.69,11.69,0,0,1,.69,2.5l.22-.18,0-.83c0-.5.06-1.15.07-1.79s0-1.3,0-1.78,0-.8,0-.8.06.29.12.72.14,1,.21,1.62.12,1.18.15,1.64l0,.75a10.76,10.76,0,0,1,1.63-.92c0-.21,0-.43,0-.66a9.89,9.89,0,0,0-1.18-4.11,6.58,6.58,0,0,0-1.37-2h0s-.14.13-.23.37a6.61,6.61,0,0,0-.36,1A17.22,17.22,0,0,0,100.15,75.4Z"/><path class="cls-1" d="M105.32,78a9.73,9.73,0,0,0-3.74,2.33c0,.14,0,.29,0,.43l1.18-.25c.72-.15,1.64-.4,2.6-.67s1.89-.6,2.61-.85l.87-.31.33-.13-.27.14-.72.36c-.6.29-1.36.68-2.17,1s-1.58.67-2.18.89l-1,.35a24.06,24.06,0,0,1,3.72-.33c.22,0,.91,0,1.59.06,2.45-1.45,4.2-3.83,4.09-4l0,0a7.84,7.84,0,0,0-2.5,0A18.78,18.78,0,0,0,105.32,78Z"/><path class="cls-1" d="M104.71,67a11.51,11.51,0,0,1,.92,1.18,11,11,0,0,1,1.23,2.29h0l.17-.22s0-.33-.13-.82l-.33-1.78c-.13-.63-.3-1.26-.41-1.73l-.2-.77s.44,1.07.85,2.21.72,2.29.72,2.29a9.81,9.81,0,0,1,1.38-1.26c0-.21-.09-.42-.15-.64a9.32,9.32,0,0,0-.87-2.07,11.53,11.53,0,0,0-1.2-1.68,6.63,6.63,0,0,0-1.77-1.6h0C104.7,62.49,104.4,64.64,104.71,67Z"/><path class="cls-1" d="M110.32,68.38a9.64,9.64,0,0,0-3.13,3.11c0,.14.07.27.11.42l1.09-.51c.66-.31,1.52-.75,2.38-1.24s1.73-1,2.36-1.4l1.07-.7-.85.71c-.51.42-1.18,1-1.89,1.47s-1.38,1-1.93,1.35l-.89.57a20.26,20.26,0,0,1,1.92-.69c.59-.19,1.16-.34,1.63-.45.21,0,.88-.21,1.56-.31,2.08-1.94,3.24-4.66,3.1-4.83h0a8,8,0,0,0-2.44.58c-.63.22-1.32.49-2,.81A14.54,14.54,0,0,0,110.32,68.38Z"/><path class="cls-1" d="M102.66,71.34a12.66,12.66,0,0,1,.8,1.28,11.63,11.63,0,0,1,1,2.4l.19-.2s0-.33,0-.83-.07-1.15-.13-1.8c-.11-1.29-.33-2.55-.33-2.55l.2.71c.13.43.26,1,.39,1.57s.26,1.18.35,1.62l.12.75a13.24,13.24,0,0,1,1.5-1.1c0-.22,0-.43-.06-.65a8.43,8.43,0,0,0-.65-2.16,9.89,9.89,0,0,0-1-1.8,6.93,6.93,0,0,0-1.58-1.79h0c-.1,0-.28.56-.42,1.4A16.54,16.54,0,0,0,102.66,71.34Z"/><path class="cls-1" d="M108.09,73.31a9.39,9.39,0,0,0-3.45,2.74c0,.14,0,.28,0,.42l.32-.1c.2-.06.49-.15.82-.28.68-.24,1.61-.57,2.52-1s1.82-.8,2.5-1.13l1.12-.58-.91.62c-.55.36-1.31.81-2,1.25s-1.51.83-2.07,1.12l-.67.35-.27.13a20.18,20.18,0,0,1,3.66-.75c.21,0,.89-.11,1.57-.13A13.44,13.44,0,0,0,114,73.22a4.7,4.7,0,0,0,.89-1.66s0,0,0,0a7.38,7.38,0,0,0-2.48.31c-.63.15-1.37.33-2.1.57A18.06,18.06,0,0,0,108.09,73.31Z"/><path class="cls-1" d="M106.26,62.52a12.24,12.24,0,0,1,1.06,1.07,12.89,12.89,0,0,1,1.47,2.14h0l.13-.23s-.08-.33-.22-.81-.3-1.1-.52-1.72-.43-1.21-.59-1.67l-.3-.74.36.64c.21.39.46.91.72,1.45.54,1.07,1,2.2,1,2.2a13.6,13.6,0,0,1,1.22-1.41c-.07-.2-.14-.41-.22-.62a9.48,9.48,0,0,0-.48-1,10.18,10.18,0,0,0-.62-.94,11.6,11.6,0,0,0-1.36-1.53,7.15,7.15,0,0,0-2-1.4h0C105.72,58,105.71,60.19,106.26,62.52Z"/><path class="cls-1" d="M112,63.24a13.49,13.49,0,0,0-1.81,1.86,7.88,7.88,0,0,0-1,1.57,4,4,0,0,1,.15.4s.42-.23,1-.62,1.42-.92,2.24-1.49,1.58-1.19,2.18-1.67c.3-.23.53-.44.7-.58l.27-.23s-.29.33-.75.8S114,64.37,113.33,65s-1.29,1.14-1.77,1.56c-.24.2-.44.37-.59.48l-.23.18a22.68,22.68,0,0,1,3.41-1.54c.2-.07.85-.29,1.5-.47,1.88-2.17,2.68-5,2.53-5.15s0,0,0,0a8.09,8.09,0,0,0-2.34.86,20.28,20.28,0,0,0-1.92,1c-.33.2-.65.41-1,.64S112.28,63,112,63.24Z"/><path class="cls-1" d="M104.71,67a11.51,11.51,0,0,1,.92,1.18,11.12,11.12,0,0,1,1.23,2.28l.17-.22s0-.32-.13-.82l-.33-1.77c-.13-.63-.3-1.27-.41-1.73l-.2-.77s.44,1.07.85,2.21.72,2.29.72,2.29a10.1,10.1,0,0,1,1.38-1.26c0-.21-.09-.42-.15-.64a9.32,9.32,0,0,0-.87-2.07,11.53,11.53,0,0,0-1.2-1.68,6.63,6.63,0,0,0-1.77-1.6h0C104.7,62.49,104.4,64.64,104.71,67Z"/><path class="cls-1" d="M110.32,68.38a9.64,9.64,0,0,0-3.13,3.11c0,.14.07.27.11.42l1.09-.51c.66-.31,1.52-.75,2.38-1.24s1.73-1,2.36-1.4l1.07-.7-.85.71c-.51.42-1.18,1-1.89,1.47s-1.38,1-1.93,1.35l-.89.58a17.92,17.92,0,0,1,1.92-.7c.59-.19,1.16-.34,1.63-.45.21,0,.88-.21,1.56-.31,2.08-1.94,3.24-4.66,3.1-4.83h0a8,8,0,0,0-2.44.58c-.63.22-1.32.49-2,.81A14.54,14.54,0,0,0,110.32,68.38Z"/><path class="cls-1" d="M107.28,57.87a11.44,11.44,0,0,1,1.18.94,11.18,11.18,0,0,1,1.7,2h0l.11-.25-.3-.77c-.19-.46-.46-1.06-.73-1.65s-.55-1.17-.77-1.6l-.38-.7.42.6c.25.36.6.85.9,1.36.62,1,1.23,2.07,1.23,2.07a10.08,10.08,0,0,1,1-1.54c-.09-.19-.18-.39-.28-.59a10.16,10.16,0,0,0-4.94-4.36h0a2.91,2.91,0,0,0,.06,1.46c.07.42.14.9.28,1.43q.1.39.24.81C107.09,57.3,107.18,57.58,107.28,57.87Z"/><path class="cls-1" d="M113.07,57.94a11,11,0,0,0-1.6,2.05,5.92,5.92,0,0,0-.76,1.67c.06.13.13.25.2.38l.94-.73c.56-.46,1.34-1.08,2.05-1.74s1.48-1.36,2-1.9l.88-.91-.67.88c-.38.52-.95,1.2-1.52,1.85l-.82.95-.76.8-.73.76a22.1,22.1,0,0,1,3.21-1.92c.19-.09.8-.39,1.44-.64.2-.29.38-.59.56-.9s.31-.61.44-.92a13.31,13.31,0,0,0,.65-1.71,5,5,0,0,0,.3-1.86h0A16.46,16.46,0,0,0,113.07,57.94Z"/><path class="cls-1" d="M106.26,62.52a12.24,12.24,0,0,1,1.06,1.07,12.76,12.76,0,0,1,1.47,2.13l.13-.24-.22-.8c-.13-.48-.3-1.1-.52-1.72s-.43-1.21-.59-1.67l-.3-.74.36.64c.21.39.46.91.72,1.45.54,1.07,1,2.19,1,2.19.17-.22.36-.46.57-.69s.42-.47.66-.71c-.07-.2-.14-.41-.22-.62a9.48,9.48,0,0,0-.48-1,10.18,10.18,0,0,0-.62-.94,11.6,11.6,0,0,0-1.36-1.53,7.15,7.15,0,0,0-2-1.4h0C105.72,58,105.71,60.19,106.26,62.52Z"/><path class="cls-1" d="M112,63.24a13.49,13.49,0,0,0-1.81,1.86,7.88,7.88,0,0,0-1,1.57,4,4,0,0,1,.15.4s.42-.23,1-.62,1.42-.92,2.24-1.49,1.58-1.19,2.18-1.67c.3-.23.53-.44.7-.58l.27-.23s-.29.33-.75.8S114,64.37,113.33,65s-1.29,1.14-1.77,1.56c-.24.2-.44.37-.59.48l-.23.18a22.68,22.68,0,0,1,3.41-1.54c.2-.07.85-.29,1.5-.47,1.88-2.17,2.68-5,2.53-5.15s0,0,0,0a8.09,8.09,0,0,0-2.34.86,20.28,20.28,0,0,0-1.92,1c-.33.2-.65.41-1,.64S112.28,63,112,63.24Z"/><path class="cls-1" d="M107.8,53.12a11.49,11.49,0,0,1,1.26.81A11.8,11.8,0,0,1,111,55.68h0l.08-.26s-.64-1.19-1.28-2.3-1.4-2.16-1.4-2.16.75.87,1.51,1.8c.39.47.72,1,1,1.32l.44.61a11,11,0,0,1,.89-1.64c-.11-.19-.23-.37-.36-.56a8.85,8.85,0,0,0-1.49-1.67,12.39,12.39,0,0,0-1.71-1.19,6.79,6.79,0,0,0-2.2-.94h0C106.24,48.82,106.74,51,107.8,53.12Z"/><path class="cls-1" d="M113.54,52.55a13.18,13.18,0,0,0-1.36,2.22,7.41,7.41,0,0,0-.57,1.74l.24.36s1.41-1.31,2.71-2.79c.68-.74,1.28-1.51,1.76-2.11l.78-1-.57,1c-.36.56-.79,1.3-1.3,2s-1,1.4-1.37,1.91l-.66.83a23.68,23.68,0,0,1,3-2.26c.18-.11.76-.48,1.37-.79a10.85,10.85,0,0,0,1.31-5.57h0a8.05,8.05,0,0,0-2.11,1.35,18.35,18.35,0,0,0-1.6,1.43A14.33,14.33,0,0,0,113.54,52.55Z"/><path class="cls-1" d="M107.28,57.87a11.33,11.33,0,0,1,2.88,2.89l.11-.25-.3-.77c-.19-.46-.46-1.07-.73-1.65s-.55-1.17-.77-1.6l-.38-.7.42.6c.25.36.6.85.9,1.36.62,1,1.23,2.07,1.23,2.07a10,10,0,0,1,1-1.53c-.09-.2-.18-.4-.28-.6a10.16,10.16,0,0,0-4.94-4.36h0a2.91,2.91,0,0,0,.06,1.46c.07.42.14.9.28,1.43q.1.39.24.81C107.09,57.3,107.18,57.58,107.28,57.87Z"/><path class="cls-1" d="M113.07,57.94a11,11,0,0,0-1.6,2.05,5.92,5.92,0,0,0-.76,1.67c.06.13.13.25.2.38l.94-.73c.56-.46,1.34-1.08,2.05-1.74s1.48-1.36,2-1.9l.88-.91-.67.88c-.38.52-.95,1.2-1.52,1.85l-.82.95-.76.8-.73.76a22.1,22.1,0,0,1,3.21-1.92c.19-.09.8-.39,1.44-.64.2-.29.38-.59.56-.9s.31-.61.44-.92a13.31,13.31,0,0,0,.65-1.71,5,5,0,0,0,.3-1.86h0A16.46,16.46,0,0,0,113.07,57.94Z"/><path class="cls-1" d="M107.75,48.34a13.77,13.77,0,0,1,1.35.67,13.17,13.17,0,0,1,2.11,1.53h0l.05-.27s-.78-1.11-1.54-2.14c-.19-.26-.39-.51-.57-.75s-.38-.46-.53-.64l-.54-.61.56.5a14.89,14.89,0,0,1,1.17,1.13c.81.84,1.63,1.75,1.63,1.75a9.76,9.76,0,0,1,.71-1.73l-.4-.51a10.57,10.57,0,0,0-3.5-2.5,6.33,6.33,0,0,0-2.26-.68h0a3,3,0,0,0,.34,1.41A21.26,21.26,0,0,0,107.75,48.34Z"/><path class="cls-1" d="M113.43,47.14A8.64,8.64,0,0,0,112,51.29l.27.33.21-.25c.13-.16.35-.39.56-.68.43-.56,1-1.33,1.59-2.14l.84-1.2c.27-.39.52-.77.7-1.09l.64-1.08s-.18.4-.44,1-.69,1.38-1.09,2.14-.83,1.5-1.14,2.05-.54.9-.54.9a20.68,20.68,0,0,1,2.67-2.57c.17-.14.71-.56,1.28-.94a12.18,12.18,0,0,0,.82-3.81,4.84,4.84,0,0,0-.07-1.89h0a8.29,8.29,0,0,0-2,1.58A17.41,17.41,0,0,0,113.43,47.14Z"/><path class="cls-1" d="M107.8,53.12a11.49,11.49,0,0,1,1.26.81A11,11,0,0,1,111,55.68l.09-.26s-.64-1.19-1.29-2.3S108.38,51,108.38,51s.75.87,1.51,1.8c.39.47.72,1,1,1.32l.44.61a11.69,11.69,0,0,1,.89-1.64c-.11-.19-.23-.37-.36-.56a8.85,8.85,0,0,0-1.49-1.67,12.39,12.39,0,0,0-1.71-1.19,6.79,6.79,0,0,0-2.2-.94h0C106.24,48.82,106.74,51,107.8,53.12Z"/><path class="cls-1" d="M113.54,52.55a13.18,13.18,0,0,0-1.36,2.22,7.41,7.41,0,0,0-.57,1.74l.24.36s1.41-1.31,2.71-2.79c.68-.74,1.28-1.51,1.76-2.11l.78-1-.57,1c-.36.56-.79,1.3-1.3,2s-1,1.4-1.37,1.91l-.66.83a23.68,23.68,0,0,1,3-2.26c.18-.11.76-.48,1.37-.79a10.85,10.85,0,0,0,1.31-5.57h0a8.05,8.05,0,0,0-2.11,1.35,18.35,18.35,0,0,0-1.6,1.43A14.33,14.33,0,0,0,113.54,52.55Z"/><path class="cls-1" d="M107.23,43.6a9.89,9.89,0,0,1,1.41.51,12.61,12.61,0,0,1,2.23,1.29h0l0-.27-.54-.63c-.33-.37-.71-.87-1.2-1.33-.94-.94-1.85-1.8-1.85-1.8s.93.68,1.88,1.42c.48.38,1,.76,1.28,1.06l.55.51a17.89,17.89,0,0,1,.51-1.8c-.15-.16-.31-.31-.48-.46a10,10,0,0,0-3.71-2.1,7.37,7.37,0,0,0-2.38-.42l0,0c-.07.07.14.61.56,1.35A12.24,12.24,0,0,0,107.23,43.6Z"/><path class="cls-1" d="M112.69,41.78a11.08,11.08,0,0,0-.48,1.3,11.56,11.56,0,0,0-.36,1.16,6,6,0,0,0-.17,1.83l.32.3s1-1.58,2-3.32c.48-.87.9-1.75,1.23-2.44l.54-1.15s-.55,1.7-1.14,3.29-1.4,3.13-1.4,3.13A19.12,19.12,0,0,1,115.69,43c.15-.15.66-.64,1.16-1.08a15.83,15.83,0,0,0,.4-3.88,4.55,4.55,0,0,0-.35-1.85h0A7.92,7.92,0,0,0,115.13,38c-.39.51-.86,1.11-1.29,1.76A13.57,13.57,0,0,0,112.69,41.78Z"/><path class="cls-1" d="M107.75,48.34a13.77,13.77,0,0,1,1.35.67,13.17,13.17,0,0,1,2.11,1.53l.05-.27s-.78-1.11-1.54-2.14l-.57-.76c-.18-.23-.38-.45-.53-.63l-.54-.61.56.5a14.89,14.89,0,0,1,1.17,1.13c.81.84,1.63,1.75,1.63,1.75a10.39,10.39,0,0,1,.71-1.73c-.13-.17-.25-.34-.4-.51a10.57,10.57,0,0,0-3.5-2.5,6.33,6.33,0,0,0-2.26-.68h0a3,3,0,0,0,.34,1.41A21.26,21.26,0,0,0,107.75,48.34Z"/><path class="cls-1" d="M113.43,47.14A8.64,8.64,0,0,0,112,51.29l.27.33.21-.25c.13-.16.35-.39.56-.68.43-.56,1-1.33,1.59-2.14l.84-1.2c.27-.39.52-.77.7-1.09l.64-1.08s-.18.4-.44,1-.69,1.38-1.09,2.14-.83,1.5-1.14,2.05-.54.9-.54.9a20.68,20.68,0,0,1,2.67-2.57c.17-.14.71-.56,1.28-.94a12.18,12.18,0,0,0,.82-3.81,4.84,4.84,0,0,0-.07-1.89h0a8.29,8.29,0,0,0-2,1.58A17.41,17.41,0,0,0,113.43,47.14Z"/><path class="cls-1" d="M106.13,39a11.36,11.36,0,0,1,1.48.35,10.48,10.48,0,0,1,2.38,1h0v-.27a7.3,7.3,0,0,0-.61-.57L108,38.32l-1.36-1.12a5.14,5.14,0,0,0-.47-.34l-.18-.13s.27.13.65.35l1.36.86c1,.63,2,1.34,2,1.34a10.46,10.46,0,0,1,.28-1.84c-.16-.14-.33-.28-.51-.41a7.21,7.21,0,0,0-2-1.08,12.78,12.78,0,0,0-2-.58,7,7,0,0,0-2.37-.16l0,0c-.06.08.18.6.67,1.3.24.35.56.73.9,1.15A13,13,0,0,0,106.13,39Z"/><path class="cls-1" d="M111.39,36.53a10.43,10.43,0,0,0-.55,2.54c0,.37,0,.71,0,1a5,5,0,0,0,.06.82l.34.26.56-1.08c.15-.32.37-.71.54-1.13s.37-.86.55-1.31c.37-.91.73-1.85,1-2.58.13-.36.24-.66.3-.87l.1-.33-.06.3A6.77,6.77,0,0,1,114,35c-.16.65-.37,1.51-.59,2.34s-.42,1.63-.66,2.25-.36,1-.36,1c.34-.62.73-1.21,1.09-1.74s.69-1,1-1.36a15.19,15.19,0,0,1,1-1.2,15.12,15.12,0,0,0,.15-2.09,13.25,13.25,0,0,0-.19-1.81,4.94,4.94,0,0,0-.51-1.82h0a7.88,7.88,0,0,0-1.56,2,18.25,18.25,0,0,0-1.06,1.88A20.7,20.7,0,0,0,111.39,36.53Z"/><path class="cls-1" d="M107.23,43.6a9.89,9.89,0,0,1,1.41.51,12,12,0,0,1,2.22,1.29l0-.27-.54-.63c-.33-.37-.71-.87-1.2-1.33-.94-.94-1.85-1.8-1.85-1.8s.93.68,1.88,1.42c.48.38,1,.76,1.27,1.06l.56.5a17.13,17.13,0,0,1,.51-1.79c-.15-.16-.31-.31-.48-.46a10,10,0,0,0-3.71-2.1,7.37,7.37,0,0,0-2.38-.42l0,0c-.07.07.14.61.56,1.35A12.24,12.24,0,0,0,107.23,43.6Z"/><path class="cls-1" d="M112.69,41.78a11.08,11.08,0,0,0-.48,1.3,11.56,11.56,0,0,0-.36,1.16,6,6,0,0,0-.17,1.83l.32.3s1-1.58,2-3.32c.48-.87.9-1.75,1.23-2.44l.54-1.15s-.55,1.7-1.14,3.29-1.4,3.13-1.4,3.13A19.12,19.12,0,0,1,115.69,43c.15-.15.66-.64,1.16-1.08a15.83,15.83,0,0,0,.4-3.88,4.55,4.55,0,0,0-.35-1.85h0A7.92,7.92,0,0,0,115.13,38c-.39.51-.86,1.11-1.29,1.76A13.57,13.57,0,0,0,112.69,41.78Z"/><path class="cls-1" d="M104.57,34.45a12,12,0,0,1,1.48.2,12.41,12.41,0,0,1,2.48.75h0l0-.27s-1.08-.8-2.13-1.53c-.54-.36-1.12-.68-1.53-.93l-.69-.4s1.07.45,2.18,1c.54.26,1,.54,1.44.76l.66.36a10,10,0,0,1,.12-1.87c-.18-.12-.37-.24-.57-.35a10.54,10.54,0,0,0-4.1-1.21,7.11,7.11,0,0,0-2.4.12s0,0,0,0,0,.18.19.39l.63.81A14.55,14.55,0,0,0,104.57,34.45Z"/><path class="cls-1" d="M109.51,31.46c-.08.48-.16.95-.22,1.39a10.53,10.53,0,0,0-.07,1.21,5.86,5.86,0,0,0,.27,1.81,2.16,2.16,0,0,1,.36.22,2.33,2.33,0,0,0,.12-.31l.29-.82c.23-.67.53-1.6.82-2.55.13-.48.29-1,.4-1.42s.19-.88.28-1.24l.25-1.24s0,.44-.09,1.1a23.23,23.23,0,0,1-.3,2.37c-.29,1.73-.63,3.34-.63,3.34A19.09,19.09,0,0,1,112.68,32c.11-.18.49-.76.9-1.31a14.83,14.83,0,0,0-.48-3.87,6.27,6.27,0,0,0-.43-1.26c-.14-.3-.25-.47-.3-.48h0a8.35,8.35,0,0,0-1.3,2.13A16.79,16.79,0,0,0,109.51,31.46Z"/><path class="cls-1" d="M106.13,39a11.36,11.36,0,0,1,1.48.35,10.48,10.48,0,0,1,2.38,1v-.28s-.22-.23-.61-.56L108,38.31l-1.36-1.11a5.14,5.14,0,0,0-.47-.34l-.18-.13s.27.13.65.35l1.36.86c1,.63,2,1.34,2,1.34a10,10,0,0,1,.28-1.84c-.16-.14-.33-.28-.51-.41a7.21,7.21,0,0,0-2-1.08,12.78,12.78,0,0,0-2-.58,7,7,0,0,0-2.37-.16l0,0c-.06.08.18.6.67,1.3.24.35.56.73.9,1.15A13,13,0,0,0,106.13,39Z"/><path class="cls-1" d="M111.39,36.53a10.43,10.43,0,0,0-.55,2.54c0,.37,0,.71,0,1a5,5,0,0,0,.06.82l.34.26.56-1.08c.15-.32.37-.71.54-1.13s.37-.86.55-1.31c.37-.91.73-1.85,1-2.58.13-.36.24-.66.3-.87l.1-.33-.06.3A6.77,6.77,0,0,1,114,35c-.16.65-.37,1.51-.59,2.34s-.42,1.63-.66,2.25l-.36,1c.34-.62.73-1.21,1.09-1.74s.69-1,1-1.36a15.19,15.19,0,0,1,1-1.2,15.12,15.12,0,0,0,.15-2.09,13.25,13.25,0,0,0-.19-1.81,4.94,4.94,0,0,0-.51-1.82h0a7.88,7.88,0,0,0-1.56,2,18.25,18.25,0,0,0-1.06,1.88A20.7,20.7,0,0,0,111.39,36.53Z"/><path class="cls-1" d="M102.48,30.17a13.89,13.89,0,0,1,1.52,0,10.78,10.78,0,0,1,2.53.48h0l-.07-.27-.7-.42c-.42-.25-1-.54-1.61-.84-1.17-.59-2.3-1.11-2.3-1.11s1.09.34,2.21.74l1.57.57c.21.09.39.16.52.2l.18.09a11.94,11.94,0,0,1-.14-1.85l-.59-.29a9.33,9.33,0,0,0-2.14-.63,12.68,12.68,0,0,0-2.08-.11,6.83,6.83,0,0,0-2.36.38l0,0C98.91,27.34,100.46,28.89,102.48,30.17Z"/><path class="cls-1" d="M107.05,26.64a11.47,11.47,0,0,0,0,2.59,6.12,6.12,0,0,0,.42,1.8,3.39,3.39,0,0,1,.39.18s.11-.47.29-1.17.42-1.69.54-2.64c.31-1.93.52-4,.52-4s0,1.81,0,3.52c0,.43,0,.84,0,1.25s-.08.77-.11,1.1c-.07.63-.12,1.05-.12,1.05a16.79,16.79,0,0,1,.67-1.93c.12-.3.24-.58.36-.85s.22-.5.32-.72.38-.8.72-1.39A10.58,10.58,0,0,0,109.19,20l0,0a7.75,7.75,0,0,0-1.07,2.26,19.43,19.43,0,0,0-.61,2.06A15.15,15.15,0,0,0,107.05,26.64Z"/><path class="cls-1" d="M104.57,34.45a12,12,0,0,1,1.48.2,12.41,12.41,0,0,1,2.48.75l0-.27s-1.07-.8-2.12-1.53c-.54-.36-1.12-.68-1.53-.93l-.69-.4s1.07.45,2.18,1c.54.26,1,.54,1.44.76l.66.36a10.33,10.33,0,0,1,.12-1.87c-.18-.12-.37-.24-.57-.35a10.54,10.54,0,0,0-4.1-1.21,7.11,7.11,0,0,0-2.4.12s0,0,0,0,0,.18.19.39l.63.81A14.55,14.55,0,0,0,104.57,34.45Z"/><path class="cls-1" d="M109.51,31.46c-.08.48-.16.95-.22,1.39a10.53,10.53,0,0,0-.07,1.21,5.86,5.86,0,0,0,.27,1.81,2.16,2.16,0,0,1,.36.22,2.33,2.33,0,0,0,.12-.31l.29-.82c.23-.67.53-1.6.82-2.55.13-.48.29-1,.4-1.42s.19-.88.28-1.24l.25-1.24s0,.44-.09,1.1-.13,1.5-.3,2.37c-.29,1.73-.63,3.34-.63,3.34A19.09,19.09,0,0,1,112.68,32c.11-.18.49-.76.9-1.31a14.83,14.83,0,0,0-.48-3.87,6.27,6.27,0,0,0-.43-1.26c-.14-.3-.25-.47-.3-.48h0a8.35,8.35,0,0,0-1.3,2.13A16.79,16.79,0,0,0,109.51,31.46Z"/><path class="cls-1" d="M99.94,26.13a11.83,11.83,0,0,1,1.49-.14,12.47,12.47,0,0,1,2.6.17h0l-.11-.25s-1.24-.53-2.43-1a16.19,16.19,0,0,0-1.68-.58L99,24.09l.73.13c.42.08,1,.18,1.6.33,1.13.28,2.31.62,2.31.62a9.78,9.78,0,0,1-.32-1.84c-.19-.08-.39-.16-.6-.23a10.82,10.82,0,0,0-4.29-.26,6.27,6.27,0,0,0-2.3.64s0,0,0,0,.08.16.28.33a6.56,6.56,0,0,0,.77.67,12.9,12.9,0,0,0,1.22.81c.23.13.48.27.75.4S99.67,26,99.94,26.13Z"/><path class="cls-1" d="M104.11,22.1a10.86,10.86,0,0,0,.28,2.61,8.27,8.27,0,0,0,.66,1.71l.4.13,0-.33a8.4,8.4,0,0,0,.11-.87c.07-.71.16-1.67.22-2.66s.12-2,.09-2.75,0-1.26,0-1.26l.15,1.09c0,.32.11.69.14,1.1s0,.85.08,1.29c.06.86.1,1.71.12,2.34a8.67,8.67,0,0,1,0,1.05,20.77,20.77,0,0,1,.92-3.6c.07-.2.3-.85.58-1.48a9.18,9.18,0,0,0-.23-1c-.1-.33-.22-.65-.34-1a15.35,15.35,0,0,0-.76-1.66,11.94,11.94,0,0,0-.67-1.15c-.21-.25-.35-.4-.41-.39h0a8.65,8.65,0,0,0-.81,2.37A16.26,16.26,0,0,0,104.11,22.1Z"/><path class="cls-1" d="M102.48,30.17a13.89,13.89,0,0,1,1.52,0,10.29,10.29,0,0,1,2.53.48l-.07-.27-.7-.42c-.42-.25-1-.55-1.61-.84-1.17-.59-2.3-1.11-2.3-1.11s1.09.34,2.21.74l1.56.57.53.2.18.09a11.79,11.79,0,0,1-.14-1.85l-.59-.29a9.33,9.33,0,0,0-2.14-.63,12.68,12.68,0,0,0-2.08-.11,6.83,6.83,0,0,0-2.36.38l0,0C98.91,27.34,100.46,28.89,102.48,30.17Z"/><path class="cls-1" d="M107.05,26.64a11.47,11.47,0,0,0,0,2.59,6.12,6.12,0,0,0,.42,1.8,3.39,3.39,0,0,1,.39.18s.11-.47.29-1.17.42-1.69.54-2.64c.31-1.93.52-4,.52-4s0,1.81,0,3.52c0,.43,0,.84,0,1.25s-.08.78-.11,1.1l-.12,1.05a16.79,16.79,0,0,1,.67-1.93c.12-.3.24-.58.36-.85s.22-.5.32-.72.38-.8.72-1.39A10.58,10.58,0,0,0,109.19,20l0,0a7.75,7.75,0,0,0-1.07,2.26,19.43,19.43,0,0,0-.61,2.06A15.15,15.15,0,0,0,107.05,26.64Z"/><path class="cls-1" d="M97,22.4c.63-.18,1.28-.29,1.49-.33A12.85,12.85,0,0,1,101,22h0l-.12-.24-.79-.26-.79-.24-1-.23c-1.28-.31-2.51-.56-2.51-.56s1.15.09,2.34.22l1.66.21.73.14a17.74,17.74,0,0,1-.54-1.78,6,6,0,0,0-.64-.15A9.39,9.39,0,0,0,97.17,19a10.46,10.46,0,0,0-2,.34,7,7,0,0,0-2.22.89s0,0,0,0,.43.45,1.18.86c.39.18.8.44,1.29.67A10.67,10.67,0,0,0,97,22.4Z"/><path class="cls-1" d="M100.63,18a9.9,9.9,0,0,0,1.42,4.17l.43.09V21c0-.72,0-1.72,0-2.71-.14-1.93-.39-4-.39-4s.42,1.75.76,3.42c.09.41.15.84.2,1.25s.11.77.15,1.09c.07.62.12,1,.12,1a20.06,20.06,0,0,1,.55-3.71c0-.21.19-.87.39-1.51a14.3,14.3,0,0,0-.79-1.92,8.9,8.9,0,0,0-.92-1.58c-.63-.88-1.16-1.42-1.27-1.4l0,0a8.2,8.2,0,0,0-.54,2.44c-.08.66-.11,1.37-.14,2.15A14.17,14.17,0,0,0,100.63,18Z"/><path class="cls-1" d="M99.94,26.13a11.83,11.83,0,0,1,1.49-.14,12.5,12.5,0,0,1,2.6.17l-.11-.25s-1.24-.53-2.43-1a17,17,0,0,0-1.68-.58L99,24.09l.73.13c.42.08,1,.18,1.6.33,1.13.28,2.31.62,2.31.62a10.48,10.48,0,0,1-.32-1.84c-.19-.08-.39-.16-.6-.23a10.82,10.82,0,0,0-4.29-.26,6.27,6.27,0,0,0-2.3.64s0,0,0,0,.08.16.28.33a6.56,6.56,0,0,0,.77.67,12.9,12.9,0,0,0,1.22.81c.23.13.48.27.75.4S99.67,26,99.94,26.13Z"/><path class="cls-1" d="M104.11,22.1a10.86,10.86,0,0,0,.28,2.61,8.27,8.27,0,0,0,.66,1.71l.4.13,0-.33a8.4,8.4,0,0,0,.11-.87c.07-.71.16-1.67.22-2.66s.12-2,.09-2.75,0-1.26,0-1.26l.15,1.09c0,.32.11.69.14,1.1s0,.85.08,1.29c.06.86.1,1.71.12,2.34a8.67,8.67,0,0,1,0,1.05,20.77,20.77,0,0,1,.92-3.6c.07-.2.3-.85.58-1.48a9.18,9.18,0,0,0-.23-1c-.1-.33-.22-.65-.34-1a15.35,15.35,0,0,0-.76-1.66,11.94,11.94,0,0,0-.67-1.15c-.21-.25-.35-.4-.41-.39h0a8.65,8.65,0,0,0-.81,2.37A16.26,16.26,0,0,0,104.11,22.1Z"/><path class="cls-1" d="M93.58,19A13.75,13.75,0,0,1,95,18.56a12.67,12.67,0,0,1,2.59-.41h0l-.16-.23s-1.33-.23-2.61-.42c-.64-.09-1.26-.19-1.76-.21l-.8-.06.74,0,.77,0h.85c1.18,0,2.4.09,2.4.09a10,10,0,0,1-.72-1.72l-.64-.08a10.17,10.17,0,0,0-4.24.69,6.42,6.42,0,0,0-2.09,1.11l0,0a3.25,3.25,0,0,0,1.25.76A20.28,20.28,0,0,0,93.58,19Z"/><path class="cls-1" d="M96.76,14.19a10,10,0,0,0,.86,2.46,6.89,6.89,0,0,0,.52.87,5.55,5.55,0,0,0,.48.67l.42,0S99,17.75,99,17s-.22-1.67-.38-2.65-.33-2-.51-2.71l-.31-1.21s.15.4.39,1,.48,1.48.74,2.3.47,1.64.64,2.25c.08.3.12.57.17.75l0,.29c0-.36,0-.71,0-1.06s0-.66,0-1c0-.63.07-1.21.12-1.7,0-.21.1-.89.24-1.56A12.12,12.12,0,0,0,98,8.48c-.71-.82-1.27-1.33-1.38-1.28l0,0a8.45,8.45,0,0,0-.29,2.51A17.65,17.65,0,0,0,96.76,14.19Z"/><path class="cls-1" d="M97,22.4c.63-.18,1.28-.29,1.49-.33A12.82,12.82,0,0,1,101,22l-.13-.24-.78-.26c-.24-.07-.5-.16-.8-.24L98.36,21c-1.28-.31-2.51-.56-2.51-.56s1.15.09,2.34.22l1.66.21.73.13c-.18-.55-.39-1.12-.54-1.77a6,6,0,0,0-.64-.15A9.39,9.39,0,0,0,97.17,19a10.46,10.46,0,0,0-2,.34,7,7,0,0,0-2.22.89s0,0,0,0,.43.45,1.18.86c.39.18.8.44,1.29.67A10.67,10.67,0,0,0,97,22.4Z"/><path class="cls-1" d="M100.63,18a9.9,9.9,0,0,0,1.42,4.17l.43.09V21c0-.72,0-1.72,0-2.71-.14-1.93-.39-4-.39-4s.42,1.75.76,3.42c.09.41.15.84.2,1.25s.11.77.15,1.09c.07.62.12,1,.12,1a20.06,20.06,0,0,1,.55-3.71c0-.21.19-.87.39-1.51a14.3,14.3,0,0,0-.79-1.92,8.9,8.9,0,0,0-.92-1.58c-.63-.88-1.16-1.42-1.27-1.4l0,0a8.2,8.2,0,0,0-.54,2.44c-.08.66-.11,1.37-.14,2.15A14.17,14.17,0,0,0,100.63,18Z"/><path class="cls-1" d="M88.19,9.24a.68.68,0,0,1,.31-.31l-1.21-.68c-.73-.41-1.76-.83-2.76-1.31A28.88,28.88,0,0,0,81.7,5.8l-1.3-.48a.39.39,0,0,0-.53.26.43.43,0,0,0,.26.55l1.27.47a29.4,29.4,0,0,1,2.78,1.12c1,.47,2,.89,2.71,1.29l1.19.67A.73.73,0,0,1,88.19,9.24Z"/><path class="cls-1" d="M89.3,12.19,89.16,12l-.07-.05a1.35,1.35,0,0,0-.21-.13l-.75-.42L85.84,10.1,83.45,9l-.78-.36-.31-.12a.44.44,0,0,0-.54.26.41.41,0,0,0,.21.54,2.74,2.74,0,0,1,.39.15l1,.47,1.42.65c.25.13.53.23.79.38l.79.45c1.06.61,2.15,1.15,2.89,1.7l1.26.84A12.93,12.93,0,0,1,89.3,12.19Z"/><path class="cls-1" d="M90.55,15.69l-1-.66-1-.69a11.46,11.46,0,0,0-1.19-.74L85,12.31a6.61,6.61,0,0,0-.77-.38l-.3-.14a.41.41,0,0,0-.54.23.39.39,0,0,0,.16.54l.28.13c.17.09.43.18.72.35l2.12,1.19.57.32c.19.11.36.24.54.35l.94.63.92.62A9.13,9.13,0,0,1,90.55,15.69Z"/><path class="cls-1" d="M91.42,8.81a14.74,14.74,0,0,1,2.28.62l-1.42-.95c-.83-.61-2-1.23-3.24-1.91l-.89-.5c-.29-.16-.6-.28-.89-.42l-1.59-.74-1.12-.52c-.28-.12-.44-.17-.44-.17a.45.45,0,0,0-.58.24.43.43,0,0,0,.26.55l.33.13.85.39,2.58,1.2L90,8.12l.81.46.23.13.08,0Z"/><path class="cls-1" d="M95.54,7.87l-1.13-.76-1.17-.78-.66-.43-.71-.4L89.24,4c-.36-.2-.68-.33-.89-.44L88,3.43a.46.46,0,0,0-.61.2.44.44,0,0,0,.23.58l.36.16c.22.12.56.24.93.46l2.74,1.54c.51.27,1,.6,1.42.89l1.22.82,1.19.79C95.49,8.57,95.51,8.21,95.54,7.87Z"/><path class="cls-1" d="M92.71,15a11,11,0,0,1,2.73-.3l-1.89-1.72c-.24-.21-.46-.44-.7-.62l-.65-.51-.63-.49.7.4.71.41c.27.15.52.34.79.52l2.14,1.45a16.57,16.57,0,0,1-.41-2.77,8.53,8.53,0,0,0-1-.67,7.75,7.75,0,0,0-1.11-.48,12.59,12.59,0,0,0-2.14-.56c-.32,0-.62-.1-.9-.12s-.53,0-.74,0a1.44,1.44,0,0,0-.71.13c0,.07.05.31.24.67.09.18.21.39.34.62s.29.5.46.77a12.45,12.45,0,0,0,1.22,1.68c.24.28.5.54.76.81A8.45,8.45,0,0,0,92.71,15Z"/><path class="cls-1" d="M93.58,19A13.75,13.75,0,0,1,95,18.56a12.67,12.67,0,0,1,2.59-.41h0l-.16-.23s-1.33-.23-2.61-.42c-.64-.09-1.26-.19-1.76-.21l-.8-.06.74,0,.77,0h.85c1.18,0,2.4.09,2.4.09a10,10,0,0,1-.72-1.72l-.64-.08a10.17,10.17,0,0,0-4.24.69,6.42,6.42,0,0,0-2.09,1.11l0,0a3.25,3.25,0,0,0,1.25.76A20.28,20.28,0,0,0,93.58,19Z"/><path class="cls-1" d="M96.76,14.19a10,10,0,0,0,.86,2.46,6.89,6.89,0,0,0,.52.87,5.55,5.55,0,0,0,.48.67l.42,0S99,17.75,99,17s-.22-1.67-.38-2.65-.33-2-.51-2.71l-.31-1.21s.15.4.39,1,.48,1.48.74,2.3.47,1.64.64,2.25c.08.3.12.57.17.75l0,.29c0-.36,0-.71,0-1.06s0-.66,0-1c0-.63.07-1.21.12-1.7,0-.21.1-.89.24-1.56A12.12,12.12,0,0,0,98,8.48c-.71-.82-1.27-1.33-1.38-1.28l0,0a8.45,8.45,0,0,0-.29,2.51A17.65,17.65,0,0,0,96.76,14.19Z"/><path class="cls-2" d="M108.31,83.27a117.65,117.65,0,0,0-43.43-8.52,117.6,117.6,0,0,0-43.42,8.52c-2,.82-6,.71-7.19-1.06l9.27,16.9c1.71,2.5,4.8,2,6.6,1.33a95.9,95.9,0,0,1,34.74-6.73,95.86,95.86,0,0,1,34.74,6.73c1.81.72,4.9,1.17,6.6-1.33l9.28-16.9C114.26,84,110.31,84.09,108.31,83.27Z"/><path class="cls-1" d="M102.43,102a8.8,8.8,0,0,1-3.18-.64,94.08,94.08,0,0,0-34.37-6.65,94,94,0,0,0-34.36,6.65,8.84,8.84,0,0,1-3.18.64,5.33,5.33,0,0,1-4.63-2.34.41.41,0,0,1-.05-.09L13.38,82.7a1,1,0,0,1,1.72-1.07c.47.68,1.83,1.12,3.46,1.12a7.15,7.15,0,0,0,2.52-.41,117.65,117.65,0,0,1,43.8-8.6,117.7,117.7,0,0,1,43.81,8.6,7,7,0,0,0,2.51.41c1.63,0,3-.44,3.47-1.12a1,1,0,0,1,1.71,1.07l-9.27,16.89,0,.09A5.36,5.36,0,0,1,102.43,102ZM64.88,92.7A96.32,96.32,0,0,1,100,99.5a6.77,6.77,0,0,0,2.44.5,3.37,3.37,0,0,0,2.93-1.42l7.67-14a10.73,10.73,0,0,1-1.83.16,9,9,0,0,1-3.27-.56,115.76,115.76,0,0,0-43.05-8.44,115.7,115.7,0,0,0-43,8.44,9.08,9.08,0,0,1-3.28.56,10.62,10.62,0,0,1-1.82-.16l7.67,14A3.36,3.36,0,0,0,27.34,100a6.66,6.66,0,0,0,2.43-.5A96.32,96.32,0,0,1,64.88,92.7Z"/><path class="cls-1" d="M22.65,85.45c-2.36,1.2-6,1.6-8-.48.55-.39,1.1-.78,1.66-1.16a4,4,0,0,0,2.88,1.63A8.5,8.5,0,0,0,22.65,85.45Z"/><path class="cls-1" d="M23.54,87.07c-2.36,1.21-6.05,1.58-8-.5l1.66-1.16c.52,1,1.84,1.43,2.89,1.65A8.33,8.33,0,0,0,23.54,87.07Z"/><path class="cls-1" d="M24.43,88.7c-2.36,1.21-6.06,1.56-8-.52L18.05,87c.52,1,1.85,1.44,2.89,1.66A8.38,8.38,0,0,0,24.43,88.7Z"/><path class="cls-1" d="M25.33,90.33c-2.37,1.2-6.08,1.53-8.06-.55l1.66-1.16a4.11,4.11,0,0,0,2.9,1.68A8.26,8.26,0,0,0,25.33,90.33Z"/><path class="cls-1" d="M26.22,92c-2.37,1.2-6.09,1.51-8.06-.57l1.65-1.16a4.14,4.14,0,0,0,2.91,1.69A8.26,8.26,0,0,0,26.22,92Z"/><path class="cls-1" d="M27.11,93.59C24.74,94.79,21,95.07,19,93l1.66-1.17c.52,1,1.85,1.47,2.91,1.71A8.1,8.1,0,0,0,27.11,93.59Z"/><path class="cls-1" d="M28,95.22c-2.38,1.2-6.12,1.46-8.09-.62l1.66-1.16a4.24,4.24,0,0,0,2.91,1.72A8.19,8.19,0,0,0,28,95.22Z"/><path class="cls-1" d="M28.9,96.85c-2.38,1.2-6.12,1.43-8.1-.64l1.66-1.16a4.23,4.23,0,0,0,2.92,1.72A8,8,0,0,0,28.9,96.85Z"/><path class="cls-1" d="M29.79,98.48c-2.38,1.2-6.13,1.41-8.11-.67.56-.38,1.11-.77,1.66-1.16a4.25,4.25,0,0,0,2.93,1.74A8,8,0,0,0,29.79,98.48Z"/><path class="cls-1" d="M107.12,85.45a8.5,8.5,0,0,0,3.48,0c1-.21,2.38-.61,2.88-1.63L115.14,85C113.15,87.05,109.47,86.65,107.12,85.45Z"/><path class="cls-1" d="M106.22,87.07a8.38,8.38,0,0,0,3.49,0c1-.21,2.38-.63,2.89-1.65l1.65,1.16C112.27,88.65,108.58,88.28,106.22,87.07Z"/><path class="cls-1" d="M105.33,88.7a8.38,8.38,0,0,0,3.49,0c1-.22,2.39-.64,2.89-1.66.56.38,1.11.77,1.66,1.16C111.39,90.26,107.69,89.91,105.33,88.7Z"/><path class="cls-1" d="M104.44,90.33a8.21,8.21,0,0,0,3.49,0c1-.23,2.4-.65,2.9-1.68l1.66,1.16C110.51,91.86,106.8,91.53,104.44,90.33Z"/><path class="cls-1" d="M103.54,92a8.31,8.31,0,0,0,3.51,0c1-.23,2.39-.66,2.9-1.69l1.66,1.16C109.63,93.47,105.91,93.16,103.54,92Z"/><path class="cls-1" d="M102.65,93.59a8.15,8.15,0,0,0,3.51,0c1-.24,2.4-.67,2.91-1.71L110.73,93C108.75,95.07,105,94.79,102.65,93.59Z"/><path class="cls-1" d="M101.76,95.22a8.15,8.15,0,0,0,3.51-.06c1-.24,2.41-.69,2.92-1.72l1.65,1.16C107.87,96.68,104.14,96.42,101.76,95.22Z"/><path class="cls-1" d="M100.86,96.85a8,8,0,0,0,3.52-.08c1.05-.24,2.41-.69,2.92-1.72.56.38,1.11.77,1.66,1.16C107,98.28,103.25,98.05,100.86,96.85Z"/><path class="cls-1" d="M100,98.48a8,8,0,0,0,3.52-.09c1.05-.24,2.42-.7,2.93-1.74l1.66,1.16C106.11,99.89,102.36,99.68,100,98.48Z"/><path class="cls-1" d="M36.24,91.19l.4,1.34q-2.14.63-4.26,1.35l-.45-1.32,1-.34q-.86-2.59-1.72-5.19l-1.09.37-.45-1.32q2.29-.78,4.6-1.46a4,4,0,0,1,2.68,0,2.28,2.28,0,0,1,1.36,1.62,2.56,2.56,0,0,1,0,1.29,2.22,2.22,0,0,1-.54,1,3,3,0,0,1-1,.69,9.85,9.85,0,0,1-1.45.54l-.79.24c.15.51.31,1,.47,1.53Zm-2-2.5.33-.1c.75-.23,1.21-.48,1.36-.77a1.36,1.36,0,0,0-.36-1.63,1,1,0,0,0-.64-.22,4.42,4.42,0,0,0-1,.22l-.42.13Z"/><path class="cls-1" d="M49.18,88.27l.22,1.37c-.84.14-1.68.28-2.52.44C46,89,45.17,88,44.29,86.9l-1,.21c.15.72.31,1.44.46,2.17l1-.22c.1.45.19.91.28,1.36-1.43.3-2.86.62-4.29,1L40.48,90l1.13-.27-1.26-5.32-1.19.29c-.12-.45-.23-.9-.34-1.35q2.67-.66,5.35-1.19a2.9,2.9,0,0,1,2.32.29A2.23,2.23,0,0,1,47.42,84a2.18,2.18,0,0,1-1.14,2.29c.61.73,1.22,1.46,1.81,2.2ZM43,85.82l.77-.16c.95-.2,1.36-.6,1.24-1.24a.8.8,0,0,0-.46-.64,1.6,1.6,0,0,0-1,0l-1,.21C42.77,84.57,42.9,85.19,43,85.82Z"/><path class="cls-1" d="M50.34,89.49l-.2-1.37,1-.15q-.39-2.7-.76-5.41l-1.07.16c-.07-.46-.14-.92-.2-1.38q3.95-.6,7.92-.9l.21,2.6c-.57,0-1.13.09-1.69.15L55.45,82c-.92.09-1.84.18-2.76.29l.23,1.89,2.18-.23.14,1.38q-1.08.11-2.16.24c.09.71.17,1.43.26,2.15.87-.11,1.74-.2,2.62-.28l-.12-1.23L57.48,86c.07.87.13,1.75.2,2.62Q54,88.95,50.34,89.49Z"/><path class="cls-1" d="M59,88.56l-.09-1.39L60,87.11c-.1-1.82-.19-3.64-.29-5.45l-1.15.06-.09-1.39c1.5-.09,3-.16,4.53-.19q1,2.39,2,4.8c.62-1.62,1.28-3.22,2-4.83,1.54,0,3.08.07,4.62.16l-.08,1.39-1.15-.06-.24,5.46,1.09,0c0,.46,0,.93-.07,1.39-1.4-.07-2.81-.12-4.21-.14,0-.46,0-.93,0-1.39l1,0c0-1.82.09-3.64.13-5.46h-.21c-1,2.27-1.89,4.54-2.74,6.83h-.9q-1.37-3.4-2.89-6.78h-.21L61.4,87l1.11,0,0,1.4C61.37,88.43,60.19,88.49,59,88.56Z"/><path class="cls-1" d="M72.35,88.57l.09-1.39,1.28.09c.15-1.81.29-3.62.43-5.44l-1.35-.1.09-1.39c1.7.12,3.4.27,5.09.46l-.15,1.38L76.47,82c-.18,1.81-.37,3.62-.55,5.43l1.3.14L77.06,89Q74.7,88.73,72.35,88.57Z"/><path class="cls-1" d="M78.94,82.31l.17-1.38c1.43.17,2.86.38,4.28.61l-.22,1.37-.87-.13-.57,3.68a5.78,5.78,0,0,0-.1,1.08.87.87,0,0,0,.25.58,1.15,1.15,0,0,0,.66.33,1.28,1.28,0,0,0,.74-.08.92.92,0,0,0,.45-.44,5.46,5.46,0,0,0,.3-1.2l.63-3.56L83.8,83,84,81.65c1.18.2,2.37.42,3.55.66-.09.45-.18.91-.28,1.36l-1.07-.21-.78,4.05a5.45,5.45,0,0,1-.32,1.19,1.85,1.85,0,0,1-.55.66,2.35,2.35,0,0,1-1,.43,4.09,4.09,0,0,1-1.44,0,4.52,4.52,0,0,1-1.52-.5,2.27,2.27,0,0,1-.88-.82,2.4,2.4,0,0,1-.3-.89,8,8,0,0,1,.1-1.44c.17-1.23.33-2.46.49-3.69Z"/><path class="cls-1" d="M87,90.61c.09-.45.19-.91.29-1.36l1.08.23c.4-1.77.79-3.55,1.19-5.32l-1.13-.25c.1-.46.19-.91.29-1.36,1.49.31,3,.66,4.44,1,.25,1.73.46,3.45.65,5.17q1.57-2.07,3.22-4.1c1.49.44,3,.92,4.46,1.42l-.45,1.32L100,87q-.85,2.58-1.72,5.18l1.06.35-.45,1.32c-1.35-.46-2.7-.89-4.06-1.29l.39-1.34,1,.3c.54-1.74,1.07-3.48,1.61-5.22l-.21-.06c-1.55,1.91-3.06,3.85-4.51,5.82l-.88-.24q-.39-3.64-1-7.31l-.2-.05q-.64,2.66-1.27,5.31l1.08.26-.33,1.35C89.34,91.13,88.19,90.86,87,90.61Z"/><path class="cls-1" d="M49.91,103.57a2.47,2.47,0,0,1-1.26-4.13,3,3,0,0,1,4,0,2.45,2.45,0,0,1,.69,1.73,2.4,2.4,0,0,1-.66,1.7,2.54,2.54,0,0,1-1.76.76l.46.18a2.23,2.23,0,0,0,.85.21h.19l-.29.77H52a1.63,1.63,0,0,1-.45-.07,6,6,0,0,1-.68-.31,2,2,0,0,0-.78-.24,1.07,1.07,0,0,0-.71.29l-.31-.48A1.28,1.28,0,0,1,49.91,103.57Zm.72-4a1.21,1.21,0,0,0-.93.42,1.72,1.72,0,0,0-.39,1.22,1.64,1.64,0,0,0,.38,1.13,1.25,1.25,0,0,0,1.88,0,1.7,1.7,0,0,0,.39-1.2,1.68,1.68,0,0,0-.37-1.14A1.19,1.19,0,0,0,50.63,99.57Z"/><path class="cls-1" d="M53.61,99.58v-.81h2.3v.81h-.48v2.18a4.26,4.26,0,0,0,0,.63.51.51,0,0,0,.19.31.6.6,0,0,0,.4.13.69.69,0,0,0,.41-.12.57.57,0,0,0,.2-.29,2.9,2.9,0,0,0,0-.72V99.58h-.47v-.81h1.92v.81h-.59V102a3.76,3.76,0,0,1,0,.71,1,1,0,0,1-.24.45,1.3,1.3,0,0,1-.54.35,2.29,2.29,0,0,1-.81.14,2.44,2.44,0,0,1-.91-.15,1.21,1.21,0,0,1-.56-.4,1.48,1.48,0,0,1-.24-.49,5.29,5.29,0,0,1,0-.84V99.58Z"/><path class="cls-1" d="M63.05,102.77v.81H60.69v-.81h.61l-.23-.83H59.83l-.26.83h.64v.81H58.08v-.81h.6l.94-3.19H59v-.81h3.14v.81h-.65l1,3.19Zm-2.17-1.53-.4-1.45L60,101.24Z"/><path class="cls-1" d="M63.24,103.58v-.81h.69V99.58h-.69v-.81h2.64v.81h-.7v3.19H66.6v-1.49h.94v2.3Z"/><path class="cls-1" d="M67.78,103.58v-.81h.73V99.58h-.73v-.81h2.71v.81h-.73v3.19h.73v.81Z"/><path class="cls-1" d="M71.69,103.58v-.81h.72V99.58h-.72v1.12h-.83V98.77h4.36v1.93h-.81V99.58h-.75v3.19h.72v.81Z"/><path class="cls-1" d="M76.64,103.58v-.81h.67v-1.3L76,99.58h-.59v-.81h2.41v.81h-.48l.71,1.18.72-1.18h-.5v-.81H80.4v.81h-.59l-1.25,1.89v1.3h.67v.81Z"/><path class="cls-1" d="M58.9,16.39a5.88,5.88,0,0,1-4.51,3.52c-1.91.27-2.65-.54-2.92-1.48a4.88,4.88,0,0,1-3.59,2.41c-2.75.39-2.38-4.42,3.21-5.91.73-2,2.41-6.66,2.41-6.66L55.58,8s-.14.42-.37,1.06A4.32,4.32,0,0,1,57.4,7.71c1.67-.24,2.67,1.29,1,3.48a4.7,4.7,0,0,1-.75.79C59.32,12.09,60,14.08,58.9,16.39ZM50.67,16c-2.94,1-3.82,3.65-2.77,3.5C48.63,19.41,49.58,18.56,50.67,16Zm4.92-2.8a6.36,6.36,0,0,0-2.42,1.53c-.2.51-.34.93-.43,1.13s-.17.42-.25.61a1.3,1.3,0,0,0,1.41,1.8,4.65,4.65,0,0,0,3-2.78C57.7,13.86,57.15,12.69,55.59,13.21ZM54,12.54a7.2,7.2,0,0,0,2.36-1.44C57.41,10,57.85,8.85,56.71,9c-.91.14-1.81,1.31-2.14,1.82S54.16,12,54,12.54Z"/><path class="cls-1" d="M69.52,11.21c-1.32,3-3.75,7.07-6.64,7.48S59.12,17,60.35,14.18c1-2.26,2.48-3.41,3.51-3.55,1.7-.25,3,1.22,1.61,3.55-.83,1.4-1.9,2.11-3,1.94a1.47,1.47,0,0,1-.67-.26c-.06,1,.43,1.5,1.44,1.36,2-.29,4.13-3.38,5.93-6.84C69.35,10.09,69.59,11.05,69.52,11.21Zm-7.35,3.36a.83.83,0,0,1-.07.18c.64.36,1.23-.18,1.71-.71.66-.74,1.1-2.2.5-2.12S62.75,13.19,62.17,14.57Z"/><path class="cls-1" d="M76,10.29c-1.32,3-3.75,7.06-6.64,7.47s-3.77-1.71-2.53-4.5c1-2.27,2.48-3.41,3.51-3.56,1.7-.24,3,1.22,1.61,3.55-.83,1.4-1.91,2.11-3,1.94a1.43,1.43,0,0,1-.67-.26c-.06,1,.43,1.5,1.44,1.36,2-.29,4.13-3.37,5.93-6.84C75.82,9.17,76.06,10.12,76,10.29Zm-7.35,3.35a.67.67,0,0,1-.07.18c.64.36,1.23-.18,1.71-.71.66-.74,1.1-2.2.5-2.11S69.22,12.26,68.64,13.64Z"/><path class="cls-1" d="M75.08,16.94c-.77.11-1.19-.4-.71-1.71.35-.94.82-2.31,1.25-3.35s-.27-1.06-.57-1.16a1.62,1.62,0,0,1-1-2.33,1.71,1.71,0,0,1,2.23-.63c.67.31.22,1.17-.37,2a.82.82,0,0,0,.29.17c1,.39,2-.37,1.48,1.24-.22.6-.29.67-.66,1.69-.13.34-.34,1-.23,1.11s.35-.21.61-.51c.79-.92,2.06-.72,2.23.43.24,1.68-.73,4.43-4.91,5-.4.05-16.91,2.54-20.17,5.7-1.49-.75-6.27-2.56-6.27-2.56S73,18.19,74.62,18c3.26-.46,4.6-2.6,4.48-3.48S78,14.24,77,15.4,75.56,16.88,75.08,16.94Z"/><path class="cls-1" d="M57.78,2.51l.54.3a1.86,1.86,0,0,1-.73,1.07,2.2,2.2,0,0,1-1.27.37,2,2,0,0,1-1.5-.6,2.13,2.13,0,0,1-.57-1.51A2.14,2.14,0,0,1,54.82.58,2,2,0,0,1,56.31,0a2.13,2.13,0,0,1,1.36.44V.07h.53V1.39h-.53a1.28,1.28,0,0,0-.55-.62,1.49,1.49,0,0,0-.78-.22,1.27,1.27,0,0,0-1,.44,1.6,1.6,0,0,0-.4,1.12,1.54,1.54,0,0,0,.43,1.14,1.31,1.31,0,0,0,1,.44,1.39,1.39,0,0,0,.87-.3A1.69,1.69,0,0,0,57.78,2.51Z"/><path class="cls-1" d="M59.86,3.67V.58h-.57V.07H61a3.14,3.14,0,0,1,.83.08,1,1,0,0,1,.51.34,1.07,1.07,0,0,1,.2.65,1,1,0,0,1-.85,1l.73,1.5h.5v.52H62l-.94-1.93h-.58V3.67H61v.52H59.29V3.67Zm.62-1.92H61a2.21,2.21,0,0,0,.52-.05.47.47,0,0,0,.27-.19.6.6,0,0,0,.11-.37.58.58,0,0,0-.11-.35.44.44,0,0,0-.27-.17,1.88,1.88,0,0,0-.48,0h-.53Z"/><path class="cls-1" d="M66.36,2.74H64.88l-.32.93h.5v.52H63.44V3.67h.5L65.07.53h-.5V.07h2.1V.53h-.51l1.15,3.14h.46v.52H66.16V3.67h.51Zm-.15-.48L65.66.53H65.6L65,2.26Z"/><path class="cls-1" d="M69,3.67V.58h-.52V.07h3.2V1.31h-.51V.58H69.59V1.8h1.33v.52H69.59V3.67h.53v.52H68.44V3.67Z"/><path class="cls-1" d="M73.72,3.67V.58h-.85v1h-.51V.07H75.7V1.63h-.51v-1h-.85V3.67h.54v.52H73.19V3.67Z"/></g></g></svg>